<?xml version="1.0" encoding="utf-8"?>
<!-- Generated by IcoMoon.io -->
<!DOCTYPE svg PUBLIC "-//W3C//DTD SVG 1.1//EN" "http://www.w3.org/Graphics/SVG/1.1/DTD/svg11.dtd">
<svg version="1.1" xmlns="http://www.w3.org/2000/svg" xmlns:xlink="http://www.w3.org/1999/xlink" width="16" height="16" viewBox="0 0 16 16">
<path fill="#333333" d="M5.010 14.323c-2.177-1.033-3.74-3.15-3.977-5.657h-1c0.34 4.107 3.773 7.333 7.967 7.333 0.15 0 0.293-0.013 0.44-0.023l-2.54-2.543-0.89 0.89zM5.603 9.973c-0.127 0-0.243-0.017-0.35-0.057-0.103-0.037-0.193-0.090-0.267-0.157s-0.13-0.15-0.17-0.243c-0.040-0.097-0.060-0.2-0.060-0.313h-0.867c0 0.24 0.047 0.45 0.14 0.633s0.217 0.337 0.373 0.457c0.157 0.123 0.337 0.213 0.543 0.277 0.207 0.067 0.42 0.097 0.647 0.097 0.247 0 0.477-0.033 0.69-0.1s0.397-0.167 0.553-0.297 0.277-0.29 0.367-0.48c0.087-0.19 0.133-0.407 0.133-0.65 0-0.13-0.017-0.253-0.047-0.373-0.033-0.12-0.083-0.233-0.15-0.34-0.070-0.107-0.16-0.2-0.27-0.287-0.11-0.083-0.247-0.153-0.403-0.21 0.133-0.060 0.25-0.133 0.35-0.22s0.183-0.18 0.25-0.277c0.067-0.1 0.117-0.2 0.15-0.307s0.050-0.213 0.050-0.317c0-0.243-0.040-0.457-0.12-0.64s-0.193-0.337-0.34-0.46c-0.147-0.123-0.32-0.217-0.527-0.28-0.213-0.067-0.44-0.097-0.687-0.097-0.24 0-0.463 0.037-0.667 0.107s-0.377 0.17-0.523 0.297c-0.147 0.127-0.26 0.277-0.343 0.45s-0.123 0.363-0.123 0.567h0.867c0-0.113 0.020-0.213 0.060-0.3 0.040-0.090 0.097-0.167 0.167-0.227 0.070-0.063 0.157-0.113 0.253-0.147s0.203-0.053 0.317-0.053c0.267 0 0.463 0.070 0.593 0.207s0.193 0.33 0.193 0.577c0 0.12-0.017 0.227-0.053 0.323s-0.090 0.18-0.163 0.25c-0.073 0.070-0.167 0.123-0.273 0.163-0.11 0.040-0.24 0.060-0.387 0.060h-0.513v0.683h0.513c0.147 0 0.28 0.017 0.397 0.050s0.217 0.083 0.3 0.157c0.083 0.070 0.147 0.16 0.193 0.267 0.043 0.107 0.067 0.233 0.067 0.38 0 0.27-0.077 0.477-0.233 0.62-0.15 0.14-0.36 0.21-0.63 0.21zM11.31 6.023c-0.21-0.22-0.463-0.39-0.757-0.51-0.297-0.12-0.62-0.18-0.977-0.18h-1.577v5.333h1.53c0.37 0 0.703-0.060 1.007-0.18s0.56-0.29 0.773-0.51c0.213-0.22 0.38-0.487 0.493-0.797 0.117-0.31 0.173-0.66 0.173-1.047v-0.263c0-0.387-0.060-0.733-0.177-1.047s-0.28-0.58-0.49-0.8zM11.047 8.137c0 0.277-0.030 0.53-0.097 0.75-0.063 0.223-0.157 0.41-0.283 0.563s-0.283 0.27-0.473 0.353c-0.19 0.080-0.41 0.123-0.663 0.123h-0.603v-3.847h0.65c0.48 0 0.843 0.153 1.097 0.457 0.25 0.307 0.377 0.747 0.377 1.327v0.273zM8 0c-0.15 0-0.293 0.013-0.44 0.023l2.54 2.543 0.887-0.887c2.18 1.030 3.743 3.147 3.98 5.653h1c-0.34-4.107-3.773-7.333-7.967-7.333z"></path>
</svg>
