<?xml version="1.0" encoding="utf-8"?>
<!-- Generated by IcoMoon.io -->
<!DOCTYPE svg PUBLIC "-//W3C//DTD SVG 1.1//EN" "http://www.w3.org/Graphics/SVG/1.1/DTD/svg11.dtd">
<svg version="1.1" xmlns="http://www.w3.org/2000/svg" xmlns:xlink="http://www.w3.org/1999/xlink" width="16" height="16" viewBox="0 0 16 16">
<path fill="#333333" d="M7.333 6h1.333v-2h2v-1.333h-2v-2h-1.333v2h-2v1.333h2v2zM4.667 12c-0.737 0-1.327 0.597-1.327 1.333s0.59 1.333 1.327 1.333 1.333-0.597 1.333-1.333-0.597-1.333-1.333-1.333zM11.333 12c-0.737 0-1.327 0.597-1.327 1.333s0.59 1.333 1.327 1.333 1.333-0.597 1.333-1.333-0.597-1.333-1.333-1.333zM4.783 9.833c0-0.030 0.007-0.057 0.020-0.080l0.6-1.087h4.967c0.5 0 0.937-0.277 1.167-0.687l2.573-4.673-1.167-0.64h-0.003l-0.737 1.333-1.837 3.333h-4.677l-0.087-0.18-2.13-4.487-0.63-1.333h-2.177v1.333h1.333l2.4 5.057-0.903 1.633c-0.103 0.193-0.163 0.41-0.163 0.643 0 0.737 0.597 1.333 1.333 1.333h8v-1.333h-7.717c-0.093 0-0.167-0.073-0.167-0.167z"></path>
</svg>
