<?xml version="1.0" encoding="utf-8"?>
<!-- Generated by IcoMoon.io -->
<!DOCTYPE svg PUBLIC "-//W3C//DTD SVG 1.1//EN" "http://www.w3.org/Graphics/SVG/1.1/DTD/svg11.dtd">
<svg version="1.1" xmlns="http://www.w3.org/2000/svg" xmlns:xlink="http://www.w3.org/1999/xlink" width="16" height="16" viewBox="0 0 16 16">
<path fill="#333333" d="M7.867 7.267c-1.513-0.393-2-0.797-2-1.43 0-0.727 0.67-1.237 1.8-1.237 1.187 0 1.627 0.567 1.667 1.4h1.473c-0.043-1.15-0.747-2.197-2.14-2.54v-1.46h-2v1.44c-1.293 0.283-2.333 1.117-2.333 2.407 0 1.54 1.277 2.307 3.133 2.753 1.67 0.4 2 0.983 2 1.61 0 0.457-0.323 1.19-1.8 1.19-1.373 0-1.917-0.617-1.987-1.4h-1.47c0.083 1.46 1.173 2.277 2.457 2.553v1.447h2v-1.433c1.297-0.25 2.333-1 2.333-2.37 0-1.887-1.62-2.533-3.133-2.93z"></path>
</svg>
