<?xml version="1.0" encoding="utf-8"?>
<!-- Generated by IcoMoon.io -->
<!DOCTYPE svg PUBLIC "-//W3C//DTD SVG 1.1//EN" "http://www.w3.org/Graphics/SVG/1.1/DTD/svg11.dtd">
<svg version="1.1" xmlns="http://www.w3.org/2000/svg" xmlns:xlink="http://www.w3.org/1999/xlink" width="16" height="16" viewBox="0 0 16 16">
<path fill="#333333" d="M9.333 3.333c0-0.737-0.597-1.333-1.333-1.333h-0.667v-0.667c0-0.367-0.3-0.667-0.667-0.667h-2.667c-0.367 0-0.667 0.3-0.667 0.667v0.667h-0.667c-0.737 0-1.333 0.597-1.333 1.333v10c0 0.737 0.597 1.333 1.333 1.333h5.333c0.737 0 1.333-0.597 1.333-1.333h5.333v-10h-5.333zM8 12h-1.333v-1.333h1.333v1.333zM8 6h-1.333v-1.333h1.333v1.333zM10.667 12h-1.333v-1.333h1.333v1.333zM10.667 6h-1.333v-1.333h1.333v1.333zM13.333 12h-1.333v-1.333h1.333v1.333zM13.333 6h-1.333v-1.333h1.333v1.333z"></path>
</svg>
