<?xml version="1.0" encoding="utf-8"?>
<!-- Generated by IcoMoon.io -->
<!DOCTYPE svg PUBLIC "-//W3C//DTD SVG 1.1//EN" "http://www.w3.org/Graphics/SVG/1.1/DTD/svg11.dtd">
<svg version="1.1" xmlns="http://www.w3.org/2000/svg" xmlns:xlink="http://www.w3.org/1999/xlink" width="16" height="16" viewBox="0 0 16 16">
<path fill="#333333" d="M10.133 8c0 1.178-0.955 2.133-2.133 2.133s-2.133-0.955-2.133-2.133c0-1.178 0.955-2.133 2.133-2.133s2.133 0.955 2.133 2.133z"></path>
<path fill="#333333" d="M6 1.333l-1.22 1.333h-2.113c-0.737 0-1.333 0.597-1.333 1.333v8c0 0.737 0.597 1.333 1.333 1.333h10.667c0.737 0 1.333-0.597 1.333-1.333v-8c0-0.737-0.597-1.333-1.333-1.333h-2.113l-1.22-1.333h-4zM8 11.333c-1.84 0-3.333-1.493-3.333-3.333s1.493-3.333 3.333-3.333 3.333 1.493 3.333 3.333-1.493 3.333-3.333 3.333z"></path>
</svg>
