<?xml version="1.0" encoding="utf-8"?>
<!-- Generated by IcoMoon.io -->
<!DOCTYPE svg PUBLIC "-//W3C//DTD SVG 1.1//EN" "http://www.w3.org/Graphics/SVG/1.1/DTD/svg11.dtd">
<svg version="1.1" xmlns="http://www.w3.org/2000/svg" xmlns:xlink="http://www.w3.org/1999/xlink" width="16" height="16" viewBox="0 0 16 16">
<path fill="#333333" d="M8 1.333c-3.683 0-6.667 2.983-6.667 6.667s2.983 6.667 6.667 6.667 6.667-2.983 6.667-6.667-2.983-6.667-6.667-6.667zM11 10.667h-5.667c-1.103 0-2-0.897-2-2s0.897-2 2-2l0.090 0.010c0.297-1.153 1.333-2.010 2.577-2.010 1.473 0 2.667 1.193 2.667 2.667h0.333c0.92 0 1.667 0.747 1.667 1.667s-0.747 1.667-1.667 1.667z"></path>
</svg>
