<?xml version="1.0" encoding="utf-8"?>
<!-- Generated by IcoMoon.io -->
<!DOCTYPE svg PUBLIC "-//W3C//DTD SVG 1.1//EN" "http://www.w3.org/Graphics/SVG/1.1/DTD/svg11.dtd">
<svg version="1.1" xmlns="http://www.w3.org/2000/svg" xmlns:xlink="http://www.w3.org/1999/xlink" width="16" height="16" viewBox="0 0 16 16">
<path fill="#333333" d="M8 2c-3.313 0-6 2.687-6 6s2.687 6 6 6c0.553 0 1-0.447 1-1 0-0.26-0.097-0.493-0.26-0.67-0.157-0.177-0.25-0.407-0.25-0.663 0-0.553 0.447-1 1-1h1.177c1.84 0 3.333-1.493 3.333-3.333 0-2.947-2.687-5.333-6-5.333zM4.333 8c-0.553 0-1-0.447-1-1s0.447-1 1-1 1 0.447 1 1-0.447 1-1 1zM6.333 5.333c-0.553 0-1-0.447-1-1s0.447-1 1-1 1 0.447 1 1-0.447 1-1 1zM9.667 5.333c-0.553 0-1-0.447-1-1s0.447-1 1-1 1 0.447 1 1-0.447 1-1 1zM11.667 8c-0.553 0-1-0.447-1-1s0.447-1 1-1 1 0.447 1 1-0.447 1-1 1z"></path>
</svg>
