<?xml version="1.0" encoding="utf-8"?>
<!-- Generated by IcoMoon.io -->
<!DOCTYPE svg PUBLIC "-//W3C//DTD SVG 1.1//EN" "http://www.w3.org/Graphics/SVG/1.1/DTD/svg11.dtd">
<svg version="1.1" xmlns="http://www.w3.org/2000/svg" xmlns:xlink="http://www.w3.org/1999/xlink" width="16" height="16" viewBox="0 0 16 16">
<path fill="#333333" d="M6.427 5.093c0.15-0.333 0.24-0.703 0.24-1.093 0-1.473-1.193-2.667-2.667-2.667s-2.667 1.193-2.667 2.667 1.193 2.667 2.667 2.667c0.39 0 0.76-0.090 1.093-0.24l1.573 1.573-1.573 1.573c-0.333-0.15-0.703-0.24-1.093-0.24-1.473 0-2.667 1.193-2.667 2.667s1.193 2.667 2.667 2.667 2.667-1.193 2.667-2.667c0-0.39-0.090-0.76-0.24-1.093l1.573-1.573 4.667 4.667h2v-0.667l-8.24-8.24zM4 5.333c-0.737 0-1.333-0.597-1.333-1.333s0.597-1.333 1.333-1.333 1.333 0.597 1.333 1.333-0.597 1.333-1.333 1.333zM4 13.333c-0.737 0-1.333-0.597-1.333-1.333s0.597-1.333 1.333-1.333 1.333 0.597 1.333 1.333-0.597 1.333-1.333 1.333zM8 8.333c-0.183 0-0.333-0.15-0.333-0.333s0.15-0.333 0.333-0.333 0.333 0.15 0.333 0.333-0.15 0.333-0.333 0.333zM12.667 2l-4 4 1.333 1.333 4.667-4.667v-0.667z"></path>
</svg>
