<?xml version="1.0" encoding="utf-8"?>
<!-- Generated by IcoMoon.io -->
<!DOCTYPE svg PUBLIC "-//W3C//DTD SVG 1.1//EN" "http://www.w3.org/Graphics/SVG/1.1/DTD/svg11.dtd">
<svg version="1.1" xmlns="http://www.w3.org/2000/svg" xmlns:xlink="http://www.w3.org/1999/xlink" width="16" height="16" viewBox="0 0 16 16">
<path fill="#333333" d="M12.613 4.007c-0.137-0.393-0.51-0.673-0.947-0.673h-7.333c-0.437 0-0.81 0.28-0.947 0.673l-1.387 3.993v5.333c0 0.367 0.3 0.667 0.667 0.667h0.667c0.37 0 0.667-0.3 0.667-0.667v-0.667h8v0.667c0 0.367 0.3 0.667 0.667 0.667h0.667c0.37 0 0.667-0.3 0.667-0.667v-5.333l-1.387-3.993zM4.333 10.667c-0.553 0-1-0.447-1-1s0.447-1 1-1 1 0.447 1 1-0.447 1-1 1zM11.667 10.667c-0.553 0-1-0.447-1-1s0.447-1 1-1 1 0.447 1 1-0.447 1-1 1zM3.333 7.333l1-3h7.333l1 3h-9.333z"></path>
</svg>
