<?xml version="1.0" encoding="utf-8"?>
<!-- Generated by IcoMoon.io -->
<!DOCTYPE svg PUBLIC "-//W3C//DTD SVG 1.1//EN" "http://www.w3.org/Graphics/SVG/1.1/DTD/svg11.dtd">
<svg version="1.1" xmlns="http://www.w3.org/2000/svg" xmlns:xlink="http://www.w3.org/1999/xlink" width="16" height="16" viewBox="0 0 16 16">
<path fill="#333333" d="M9.333 2.533c0.66 0 1.2-0.537 1.2-1.2s-0.54-1.2-1.2-1.2c-0.663 0-1.2 0.537-1.2 1.2s0.537 1.2 1.2 1.2zM9.413 6.667h3.253v-1.2h-2.417l-1.333-2.22c-0.197-0.333-0.56-0.553-0.973-0.553-0.113 0-0.223 0.017-0.327 0.047l-3.617 1.127v3.467h1.2v-2.443l1.403-0.437-2.603 10.213h1.2l1.913-5.407 1.553 2.073v3.333h1.2v-4.27l-1.66-3.027 0.49-1.913 0.717 1.21z"></path>
</svg>
