<?xml version="1.0" encoding="utf-8"?>
<!-- Generated by IcoMoon.io -->
<!DOCTYPE svg PUBLIC "-//W3C//DTD SVG 1.1//EN" "http://www.w3.org/Graphics/SVG/1.1/DTD/svg11.dtd">
<svg version="1.1" xmlns="http://www.w3.org/2000/svg" xmlns:xlink="http://www.w3.org/1999/xlink" width="16" height="16" viewBox="0 0 16 16">
<path fill="#333333" d="M13.333 14c-0.927 0-1.853-0.313-2.667-0.883-1.627 1.14-3.707 1.14-5.333 0-0.813 0.57-1.74 0.883-2.667 0.883h-1.333v1.333h1.333c0.917 0 1.827-0.23 2.667-0.663 1.68 0.863 3.653 0.863 5.333 0 0.84 0.43 1.75 0.663 2.667 0.663h1.333v-1.333h-1.333zM2.63 12.667h0.037c1.067 0 2.017-0.587 2.667-1.333 0.65 0.747 1.6 1.333 2.667 1.333s2.017-0.587 2.667-1.333c0.653 0.747 1.597 1.333 2.667 1.333h0.037l1.263-4.457c0.057-0.17 0.040-0.357-0.040-0.517-0.083-0.16-0.227-0.28-0.4-0.33l-0.86-0.283v-3.080c0-0.737-0.597-1.333-1.333-1.333h-2v-2h-4v2h-2c-0.737 0-1.333 0.597-1.333 1.333v3.080l-0.857 0.28c-0.173 0.053-0.317 0.17-0.4 0.33s-0.097 0.347-0.040 0.517l1.26 4.46zM4 4h8v2.643l-4-1.31-4 1.31v-2.643z"></path>
</svg>
