<?xml version="1.0" encoding="utf-8"?>
<!-- Generated by IcoMoon.io -->
<!DOCTYPE svg PUBLIC "-//W3C//DTD SVG 1.1//EN" "http://www.w3.org/Graphics/SVG/1.1/DTD/svg11.dtd">
<svg version="1.1" xmlns="http://www.w3.org/2000/svg" xmlns:xlink="http://www.w3.org/1999/xlink" width="32" height="32" viewBox="0 0 32 32">
<path fill="#333333" d="M27.333 14.667h-2v-5.333c0-1.473-1.193-2.667-2.667-2.667h-5.333v-2c0-1.84-1.493-3.333-3.333-3.333s-3.333 1.493-3.333 3.333v2h-5.333c-1.473 0-2.653 1.193-2.653 2.667l-0.007 5.067h1.993c1.987 0 3.6 1.613 3.6 3.6s-1.613 3.6-3.6 3.6h-1.993l-0.007 5.067c0 1.473 1.193 2.667 2.667 2.667h5.067v-2c0-1.987 1.613-3.6 3.6-3.6s3.6 1.613 3.6 3.6v2h5.067c1.473 0 2.667-1.193 2.667-2.667v-5.333h2c1.84 0 3.333-1.493 3.333-3.333s-1.493-3.333-3.333-3.333z"></path>
</svg>
