<?xml version="1.0" encoding="utf-8"?>
<!-- Generated by IcoMoon.io -->
<!DOCTYPE svg PUBLIC "-//W3C//DTD SVG 1.1//EN" "http://www.w3.org/Graphics/SVG/1.1/DTD/svg11.dtd">
<svg version="1.1" xmlns="http://www.w3.org/2000/svg" xmlns:xlink="http://www.w3.org/1999/xlink" width="16" height="16" viewBox="0 0 16 16">
<path fill="#333333" d="M12.463 8.267c-0.187-0.107-0.38-0.193-0.573-0.267 0.193-0.073 0.387-0.16 0.573-0.267 1.28-0.74 1.993-2.083 1.997-3.463-1.197-0.687-2.717-0.74-3.997 0-0.187 0.107-0.357 0.23-0.52 0.363 0.033-0.21 0.057-0.417 0.057-0.633 0-1.48-0.807-2.77-2-3.46-1.193 0.69-2 1.98-2 3.46 0 0.217 0.020 0.423 0.053 0.63-0.163-0.13-0.333-0.253-0.52-0.363-1.28-0.74-2.8-0.687-3.997 0 0.003 1.38 0.717 2.723 1.997 3.463 0.187 0.107 0.38 0.193 0.573 0.267-0.193 0.073-0.387 0.16-0.573 0.267-1.28 0.74-1.993 2.083-1.997 3.463 1.197 0.687 2.717 0.74 3.997 0 0.187-0.107 0.357-0.23 0.52-0.363-0.030 0.213-0.053 0.42-0.053 0.637 0 1.48 0.807 2.77 2 3.46 1.193-0.693 2-1.98 2-3.46 0-0.217-0.023-0.423-0.053-0.63 0.163 0.13 0.333 0.253 0.52 0.363 1.28 0.74 2.8 0.687 3.997 0-0.003-1.383-0.717-2.727-2-3.467zM8 10.667c-1.473 0-2.667-1.193-2.667-2.667s1.193-2.667 2.667-2.667 2.667 1.193 2.667 2.667-1.193 2.667-2.667 2.667z"></path>
</svg>
