<?xml version="1.0" encoding="utf-8"?>
<!-- Generated by IcoMoon.io -->
<!DOCTYPE svg PUBLIC "-//W3C//DTD SVG 1.1//EN" "http://www.w3.org/Graphics/SVG/1.1/DTD/svg11.dtd">
<svg version="1.1" xmlns="http://www.w3.org/2000/svg" xmlns:xlink="http://www.w3.org/1999/xlink" width="16" height="16" viewBox="0 0 16 16">
<path fill="#333333" d="M11.82 8.013l2.653-2.653c0.26-0.26 0.26-0.683 0-0.943l-2.89-2.89c-0.26-0.26-0.683-0.26-0.943 0l-2.653 2.653-2.653-2.65c-0.13-0.13-0.3-0.197-0.47-0.197s-0.34 0.067-0.47 0.197l-2.893 2.89c-0.26 0.26-0.26 0.683 0 0.943l2.653 2.653-2.653 2.65c-0.26 0.26-0.26 0.683 0 0.943l2.89 2.89c0.26 0.26 0.683 0.26 0.943 0l2.653-2.653 2.653 2.653c0.13 0.13 0.3 0.197 0.47 0.197s0.34-0.067 0.47-0.197l2.89-2.89c0.26-0.26 0.26-0.683 0-0.943l-2.65-2.653zM8 6c0.367 0 0.667 0.3 0.667 0.667s-0.3 0.667-0.667 0.667-0.667-0.3-0.667-0.667 0.3-0.667 0.667-0.667zM4.86 7.307l-2.417-2.417 2.42-2.42 2.417 2.417-2.42 2.42zM6.667 8.667c-0.367 0-0.667-0.3-0.667-0.667s0.3-0.667 0.667-0.667 0.667 0.3 0.667 0.667-0.3 0.667-0.667 0.667zM8 10c-0.367 0-0.667-0.3-0.667-0.667s0.3-0.667 0.667-0.667 0.667 0.3 0.667 0.667-0.3 0.667-0.667 0.667zM9.333 7.333c0.367 0 0.667 0.3 0.667 0.667s-0.3 0.667-0.667 0.667-0.667-0.3-0.667-0.667 0.3-0.667 0.667-0.667zM11.11 13.557l-2.417-2.417 2.42-2.42 2.417 2.417-2.42 2.42z"></path>
</svg>
