<?xml version="1.0" encoding="utf-8"?>
<!-- Generated by IcoMoon.io -->
<!DOCTYPE svg PUBLIC "-//W3C//DTD SVG 1.1//EN" "http://www.w3.org/Graphics/SVG/1.1/DTD/svg11.dtd">
<svg version="1.1" xmlns="http://www.w3.org/2000/svg" xmlns:xlink="http://www.w3.org/1999/xlink" width="16" height="16" viewBox="0 0 16 16">
<path fill="#333333" d="M12.667 2h-9.34c-0.737 0-1.32 0.597-1.32 1.333l-0.007 9.333c0 0.737 0.59 1.333 1.327 1.333h9.34c0.737 0 1.333-0.597 1.333-1.333v-9.333c0-0.737-0.597-1.333-1.333-1.333zM12.667 10h-2.667c0 1.103-0.897 2-2 2s-2-0.897-2-2h-2.673v-6.667h9.34v6.667zM10.667 6.667h-1.333v-2h-2.667v2h-1.333l2.667 2.667 2.667-2.667z"></path>
</svg>
