<?xml version="1.0" encoding="utf-8"?>
<!-- Generated by IcoMoon.io -->
<!DOCTYPE svg PUBLIC "-//W3C//DTD SVG 1.1//EN" "http://www.w3.org/Graphics/SVG/1.1/DTD/svg11.dtd">
<svg version="1.1" xmlns="http://www.w3.org/2000/svg" xmlns:xlink="http://www.w3.org/1999/xlink" width="16" height="16" viewBox="0 0 16 16">
<path fill="#333333" d="M7.997 1.333c-3.683 0-6.663 2.983-6.663 6.667s2.98 6.667 6.663 6.667c3.683 0 6.67-2.983 6.67-6.667s-2.987-6.667-6.67-6.667zM12.613 5.333h-1.967c-0.217-0.833-0.52-1.633-0.92-2.373 1.227 0.42 2.247 1.27 2.887 2.373zM8 2.69c0.557 0.8 0.99 1.69 1.273 2.643h-2.547c0.283-0.953 0.717-1.843 1.273-2.643zM2.84 9.333c-0.11-0.427-0.173-0.873-0.173-1.333s0.063-0.907 0.173-1.333h2.25c-0.053 0.437-0.090 0.88-0.090 1.333s0.037 0.897 0.093 1.333h-2.253zM3.383 10.667h1.967c0.217 0.833 0.52 1.633 0.92 2.377-1.227-0.42-2.247-1.273-2.887-2.377zM5.35 5.333h-1.967c0.64-1.103 1.66-1.957 2.887-2.377-0.4 0.743-0.703 1.543-0.92 2.377zM8 13.31c-0.553-0.8-0.987-1.69-1.273-2.643h2.547c-0.287 0.953-0.72 1.843-1.273 2.643zM9.56 9.333h-3.12c-0.063-0.437-0.107-0.88-0.107-1.333s0.043-0.897 0.107-1.333h3.12c0.063 0.437 0.107 0.88 0.107 1.333s-0.043 0.897-0.107 1.333zM9.73 13.040c0.4-0.743 0.703-1.54 0.92-2.373h1.967c-0.643 1.103-1.663 1.953-2.887 2.373zM10.907 9.333c0.053-0.437 0.093-0.88 0.093-1.333s-0.037-0.897-0.093-1.333h2.25c0.11 0.427 0.177 0.873 0.177 1.333s-0.063 0.907-0.177 1.333h-2.25z"></path>
</svg>
