<?xml version="1.0" encoding="utf-8"?>
<!-- Generated by IcoMoon.io -->
<!DOCTYPE svg PUBLIC "-//W3C//DTD SVG 1.1//EN" "http://www.w3.org/Graphics/SVG/1.1/DTD/svg11.dtd">
<svg version="1.1" xmlns="http://www.w3.org/2000/svg" xmlns:xlink="http://www.w3.org/1999/xlink" width="16" height="16" viewBox="0 0 16 16">
<path fill="#333333" d="M2.6 8c0-1.14 0.927-2.067 2.067-2.067h2.667v-1.267h-2.667c-1.84 0-3.333 1.493-3.333 3.333s1.493 3.333 3.333 3.333h2.667v-1.267h-2.667c-1.14 0-2.067-0.927-2.067-2.067zM5.333 8.667h5.333v-1.333h-5.333v1.333zM11.333 4.667h-2.667v1.267h2.667c1.14 0 2.067 0.927 2.067 2.067s-0.927 2.067-2.067 2.067h-2.667v1.267h2.667c1.84 0 3.333-1.493 3.333-3.333s-1.493-3.333-3.333-3.333z"></path>
</svg>
