<?xml version="1.0" encoding="utf-8"?>
<!-- Generated by IcoMoon.io -->
<!DOCTYPE svg PUBLIC "-//W3C//DTD SVG 1.1//EN" "http://www.w3.org/Graphics/SVG/1.1/DTD/svg11.dtd">
<svg version="1.1" xmlns="http://www.w3.org/2000/svg" xmlns:xlink="http://www.w3.org/1999/xlink" width="16" height="16" viewBox="0 0 16 16">
<path fill="#333333" d="M13.333 5.333h-2v-2.667h-9.333c-0.737 0-1.333 0.597-1.333 1.333v7.333h1.333c0 1.103 0.897 2 2 2s2-0.897 2-2h4c0 1.103 0.897 2 2 2s2-0.897 2-2h1.333v-3.333l-2-2.667zM4 12.333c-0.553 0-1-0.447-1-1s0.447-1 1-1 1 0.447 1 1-0.447 1-1 1zM13 6.333l1.31 1.667h-2.977v-1.667h1.667zM12 12.333c-0.553 0-1-0.447-1-1s0.447-1 1-1 1 0.447 1 1-0.447 1-1 1z"></path>
</svg>
