<?xml version="1.0" encoding="utf-8"?>
<!-- Generated by IcoMoon.io -->
<!DOCTYPE svg PUBLIC "-//W3C//DTD SVG 1.1//EN" "http://www.w3.org/Graphics/SVG/1.1/DTD/svg11.dtd">
<svg version="1.1" xmlns="http://www.w3.org/2000/svg" xmlns:xlink="http://www.w3.org/1999/xlink" width="16" height="16" viewBox="0 0 16 16">
<path fill="#333333" d="M13.333 8c0-0.737 0.597-1.333 1.333-1.333v-2.667c0-0.737-0.597-1.333-1.333-1.333h-10.667c-0.737 0-1.327 0.597-1.327 1.333l-0.003 2.667c0.737 0.003 1.33 0.6 1.33 1.333 0 0.737-0.597 1.333-1.33 1.333l-0.003 2.667c0 0.737 0.597 1.333 1.333 1.333h10.667c0.737 0 1.333-0.597 1.333-1.333v-2.667c-0.737 0-1.333-0.597-1.333-1.333zM10.387 11.2l-2.387-1.533-2.387 1.533 0.72-2.743-2.193-1.793 2.83-0.167 1.030-2.63 1.030 2.63 2.83 0.167-2.193 1.793 0.72 2.743z"></path>
</svg>
