<?xml version="1.0" encoding="utf-8"?>
<!-- Generated by IcoMoon.io -->
<!DOCTYPE svg PUBLIC "-//W3C//DTD SVG 1.1//EN" "http://www.w3.org/Graphics/SVG/1.1/DTD/svg11.dtd">
<svg version="1.1" xmlns="http://www.w3.org/2000/svg" xmlns:xlink="http://www.w3.org/1999/xlink" width="16" height="16" viewBox="0 0 16 16">
<path fill="#333333" d="M8 2.667v-2l-2.667 2.667 2.667 2.667v-2c2.21 0 4 1.79 4 4 0 0.677-0.17 1.31-0.463 1.87l0.973 0.973c0.517-0.827 0.823-1.797 0.823-2.843 0-2.947-2.387-5.333-5.333-5.333zM8 12c-2.21 0-4-1.79-4-4 0-0.677 0.17-1.31 0.463-1.87l-0.973-0.973c-0.517 0.827-0.823 1.797-0.823 2.843 0 2.947 2.387 5.333 5.333 5.333v2l2.667-2.667-2.667-2.667v2z"></path>
</svg>
