<?xml version="1.0" encoding="utf-8"?>
<!-- Generated by IcoMoon.io -->
<!DOCTYPE svg PUBLIC "-//W3C//DTD SVG 1.1//EN" "http://www.w3.org/Graphics/SVG/1.1/DTD/svg11.dtd">
<svg version="1.1" xmlns="http://www.w3.org/2000/svg" xmlns:xlink="http://www.w3.org/1999/xlink" width="16" height="16" viewBox="0 0 16 16">
<path fill="#333333" d="M13.667 2c-0.037 0-0.070 0.003-0.103 0.017l-3.563 1.383-4-1.4-3.757 1.267c-0.14 0.047-0.243 0.167-0.243 0.32v10.080c0 0.183 0.15 0.333 0.333 0.333 0.037 0 0.070-0.003 0.103-0.017l3.563-1.383 4 1.4 3.76-1.263c0.14-0.050 0.24-0.17 0.24-0.323v-10.080c0-0.183-0.15-0.333-0.333-0.333zM10 12.667l-4-1.403v-7.93l4 1.403v7.93z"></path>
</svg>
