<?xml version="1.0" encoding="utf-8"?>
<!-- Generated by IcoMoon.io -->
<!DOCTYPE svg PUBLIC "-//W3C//DTD SVG 1.1//EN" "http://www.w3.org/Graphics/SVG/1.1/DTD/svg11.dtd">
<svg version="1.1" xmlns="http://www.w3.org/2000/svg" xmlns:xlink="http://www.w3.org/1999/xlink" width="32" height="32" viewBox="0 0 32 32">
<path fill="#333333" d="M16 18.667c2.207 0 3.987-1.793 3.987-4l0.013-8c0-2.213-1.787-4-4-4-2.207 0-4 1.787-4 4v8c0 2.207 1.793 4 4 4zM23.067 14.667c0 4-3.38 6.8-7.067 6.8-3.68 0-7.067-2.8-7.067-6.8h-2.267c0 4.553 3.627 8.313 8 8.96v4.373h2.667v-4.373c4.373-0.647 8-4.407 8-8.96h-2.267z"></path>
</svg>
