<?xml version="1.0" encoding="utf-8"?>
<!-- Generated by IcoMoon.io -->
<!DOCTYPE svg PUBLIC "-//W3C//DTD SVG 1.1//EN" "http://www.w3.org/Graphics/SVG/1.1/DTD/svg11.dtd">
<svg version="1.1" xmlns="http://www.w3.org/2000/svg" xmlns:xlink="http://www.w3.org/1999/xlink" width="16" height="16" viewBox="0 0 16 16">
<path fill="#333333" d="M2.667 4h-1.333v9.333c0 0.737 0.597 1.333 1.333 1.333h9.333v-1.333h-9.333v-9.333zM13.333 1.333h-8c-0.737 0-1.333 0.597-1.333 1.333v8c0 0.737 0.597 1.333 1.333 1.333h8c0.737 0 1.333-0.597 1.333-1.333v-8c0-0.737-0.597-1.333-1.333-1.333zM12.667 7.333h-2.667v2.667h-1.333v-2.667h-2.667v-1.333h2.667v-2.667h1.333v2.667h2.667v1.333z"></path>
</svg>
