<?xml version="1.0" encoding="utf-8"?>
<!-- Generated by IcoMoon.io -->
<!DOCTYPE svg PUBLIC "-//W3C//DTD SVG 1.1//EN" "http://www.w3.org/Graphics/SVG/1.1/DTD/svg11.dtd">
<svg version="1.1" xmlns="http://www.w3.org/2000/svg" xmlns:xlink="http://www.w3.org/1999/xlink" width="16" height="16" viewBox="0 0 16 16">
<path fill="#333333" d="M14.78 6.113c0-2.577-2.090-4.667-4.667-4.667s-4.667 2.090-4.667 4.667c0 2.31 1.68 4.223 3.887 4.597v2.623h-5.333v-2h0.667v-2.667c0-0.367-0.3-0.667-0.667-0.667h-2c-0.367 0-0.667 0.3-0.667 0.667v2.667h0.667v3.333h10.667v-1.333h-2v-2.587c2.317-0.273 4.113-2.243 4.113-4.633zM3 7.333c0.553 0 1-0.447 1-1s-0.447-1-1-1-1 0.447-1 1 0.447 1 1 1z"></path>
</svg>
