<?xml version="1.0" encoding="utf-8"?>
<!-- Generated by IcoMoon.io -->
<!DOCTYPE svg PUBLIC "-//W3C//DTD SVG 1.1//EN" "http://www.w3.org/Graphics/SVG/1.1/DTD/svg11.dtd">
<svg version="1.1" xmlns="http://www.w3.org/2000/svg" xmlns:xlink="http://www.w3.org/1999/xlink" width="16" height="16" viewBox="0 0 16 16">
<path fill="#333333" d="M1.333 4h-1.333v3.333h0.007l-0.007 6c0 0.737 0.597 1.333 1.333 1.333h12v-1.333h-12v-9.333zM14.667 2.667h-5.333l-1.333-1.333h-4c-0.737 0-1.327 0.597-1.327 1.333l-0.007 8c0 0.737 0.597 1.333 1.333 1.333h10.667c0.737 0 1.333-0.597 1.333-1.333v-6.667c0-0.737-0.597-1.333-1.333-1.333zM4.667 10l3-4 2.333 3.003 1.667-2.003 2.333 3h-9.333z"></path>
</svg>
