<?xml version="1.0" encoding="utf-8"?>
<!-- Generated by IcoMoon.io -->
<!DOCTYPE svg PUBLIC "-//W3C//DTD SVG 1.1//EN" "http://www.w3.org/Graphics/SVG/1.1/DTD/svg11.dtd">
<svg version="1.1" xmlns="http://www.w3.org/2000/svg" xmlns:xlink="http://www.w3.org/1999/xlink" width="16" height="16" viewBox="0 0 16 16">
<path fill="#333333" d="M13.333 3.333h-2.113l-1.22-1.333h-4l-1.22 1.333h-2.113c-0.737 0-1.333 0.597-1.333 1.333v8c0 0.737 0.597 1.333 1.333 1.333h4.667v-1.393c-1.89-0.32-3.333-1.963-3.333-3.94h1.333c0 1.47 1.197 2.667 2.667 2.667s2.667-1.197 2.667-2.667h1.333c0 1.977-1.443 3.62-3.333 3.94v1.393h4.667c0.737 0 1.333-0.597 1.333-1.333v-8c0-0.737-0.597-1.333-1.333-1.333zM9.333 8.667c0 0.737-0.597 1.333-1.333 1.333s-1.333-0.597-1.333-1.333v-2.667c0-0.737 0.597-1.333 1.333-1.333s1.333 0.597 1.333 1.333v2.667z"></path>
</svg>
