<?xml version="1.0" encoding="utf-8"?>
<!-- Generated by IcoMoon.io -->
<!DOCTYPE svg PUBLIC "-//W3C//DTD SVG 1.1//EN" "http://www.w3.org/Graphics/SVG/1.1/DTD/svg11.dtd">
<svg version="1.1" xmlns="http://www.w3.org/2000/svg" xmlns:xlink="http://www.w3.org/1999/xlink" width="16" height="16" viewBox="0 0 16 16">
<path fill="#333333" d="M14 3.333v9.333h1.333v-9.333h-1.333zM11.333 12.667h1.333v-9.333h-1.333v9.333zM9.333 3.333h-8c-0.367 0-0.667 0.3-0.667 0.667v8c0 0.367 0.3 0.667 0.667 0.667h8c0.367 0 0.667-0.3 0.667-0.667v-8c0-0.367-0.3-0.667-0.667-0.667zM5.333 5.167c0.827 0 1.5 0.673 1.5 1.5 0 0.83-0.673 1.5-1.5 1.5s-1.5-0.67-1.5-1.5c0-0.827 0.673-1.5 1.5-1.5zM8.333 11.333h-6v-0.5c0-1 2-1.5 3-1.5s3 0.5 3 1.5v0.5z"></path>
</svg>
