<?xml version="1.0" encoding="utf-8"?>
<!-- Generated by IcoMoon.io -->
<!DOCTYPE svg PUBLIC "-//W3C//DTD SVG 1.1//EN" "http://www.w3.org/Graphics/SVG/1.1/DTD/svg11.dtd">
<svg version="1.1" xmlns="http://www.w3.org/2000/svg" xmlns:xlink="http://www.w3.org/1999/xlink" width="16" height="16" viewBox="0 0 16 16">
<path fill="#333333" d="M1.687 13.103l0.897 0.37v-6.017l-1.617 3.903c-0.28 0.677 0.043 1.46 0.72 1.743zM14.687 10.63l-3.307-7.977c-0.207-0.5-0.693-0.81-1.203-0.82-0.177-0.003-0.357 0.030-0.533 0.1l-4.91 2.033c-0.5 0.207-0.807 0.69-0.82 1.2-0.003 0.18 0.027 0.36 0.1 0.537l3.303 7.977c0.21 0.507 0.7 0.813 1.22 0.82 0.173 0 0.347-0.030 0.517-0.1l4.91-2.033c0.677-0.28 1.003-1.060 0.723-1.737zM5.25 5.833c-0.367 0-0.667-0.3-0.667-0.667s0.3-0.667 0.667-0.667 0.667 0.3 0.667 0.667-0.3 0.667-0.667 0.667zM3.917 13.167c0 0.733 0.6 1.333 1.333 1.333h0.97l-2.303-5.56v4.227z"></path>
</svg>
