<?xml version="1.0" encoding="utf-8"?>
<!-- Generated by IcoMoon.io -->
<!DOCTYPE svg PUBLIC "-//W3C//DTD SVG 1.1//EN" "http://www.w3.org/Graphics/SVG/1.1/DTD/svg11.dtd">
<svg version="1.1" xmlns="http://www.w3.org/2000/svg" xmlns:xlink="http://www.w3.org/1999/xlink" width="16" height="16" viewBox="0 0 16 16">
<path fill="#333333" d="M9 8.993c0 0.552-0.448 1-1 1s-1-0.448-1-1c0-0.552 0.448-1 1-1s1 0.448 1 1z"></path>
<path fill="#333333" d="M8 1.333c-3.68 0-6.667 2.987-6.667 6.667s2.987 6.667 6.667 6.667 6.667-2.987 6.667-6.667-2.987-6.667-6.667-6.667zM8 3c0.827 0 1.5 0.673 1.5 1.5s-0.673 1.5-1.5 1.5-1.5-0.673-1.5-1.5 0.673-1.5 1.5-1.5zM11.333 10.040v1.667c-0.3 0.273-0.64 0.513-1 0.7v-0.453c0-0.227-0.113-0.433-0.307-0.613-0.433-0.413-1.26-0.68-2.027-0.68-0.64 0-1.307 0.187-1.767 0.487l-0.113 0.080-0.14 0.113c0.52 0.313 1.087 0.48 1.693 0.547l0.887 0.1c0.247 0.027 0.44 0.24 0.44 0.5 0 0.193-0.107 0.353-0.267 0.44-0.187 0.1-0.427 0.060-0.633 0.060-0.233 0-0.46-0.007-0.687-0.033-0.333-0.040-0.66-0.113-0.973-0.22-0.327-0.107-0.647-0.253-0.947-0.427-0.147-0.087-0.293-0.18-0.433-0.287l-0.207-0.16c-0.027-0.013-0.187-0.12-0.187-0.153v-2.853c0-1.053 1.753-1.853 3.333-1.853s3.333 0.8 3.333 1.853v1.187z"></path>
</svg>
