<?xml version="1.0" encoding="utf-8"?>
<!-- Generated by IcoMoon.io -->
<!DOCTYPE svg PUBLIC "-//W3C//DTD SVG 1.1//EN" "http://www.w3.org/Graphics/SVG/1.1/DTD/svg11.dtd">
<svg version="1.1" xmlns="http://www.w3.org/2000/svg" xmlns:xlink="http://www.w3.org/1999/xlink" width="16" height="16" viewBox="0 0 16 16">
<path fill="#333333" d="M8 4.667c1.84 0 3.333 1.493 3.333 3.333 0 0.43-0.087 0.84-0.237 1.217l1.95 1.95c1.007-0.84 1.8-1.927 2.29-3.167-1.157-2.927-4-5-7.337-5-0.933 0-1.827 0.167-2.657 0.467l1.44 1.437c0.377-0.147 0.787-0.237 1.217-0.237zM1.333 2.85l1.823 1.823c-1.1 0.86-1.97 2.003-2.49 3.327 1.153 2.927 4 5 7.333 5 1.033 0 2.020-0.2 2.923-0.563l0.283 0.283 1.943 1.947 0.85-0.847-11.817-11.82-0.85 0.85zM5.020 6.533l1.030 1.030c-0.030 0.143-0.050 0.287-0.050 0.437 0 1.103 0.897 2 2 2 0.15 0 0.293-0.020 0.433-0.050l1.030 1.030c-0.443 0.22-0.937 0.353-1.463 0.353-1.84 0-3.333-1.493-3.333-3.333 0-0.527 0.133-1.020 0.353-1.467zM7.89 6.010l2.1 2.1 0.010-0.11c0-1.103-0.897-2-2-2l-0.11 0.010z"></path>
</svg>
