<svg width="44" height="44" viewBox="0 0 44 44" fill="none" xmlns="http://www.w3.org/2000/svg">
<path d="M24.9759 6.00001C24.9506 6.00001 24.9092 6 26.4194 6C28.5918 6 28.5918 8.15387 28.5918 8.15387V10.3077C28.2776 10.2751 26.4866 10.2927 25.4887 10.3025C25.191 10.3055 24.964 10.3077 24.8677 10.3077C18.3545 10.3077 13.0746 15.5425 13.0746 22C13.0746 28.4575 18.3545 33.6923 24.8677 33.6923L28.5918 33.6923V35.8461C28.5918 35.8461 28.5918 38 26.4194 38C24.9144 38 24.9504 38 24.9757 38C24.9869 38 24.996 38 24.8677 38C16.6916 38 9.93569 31.9718 8.87469 24.1538H5.24138C4.55578 24.1538 4 23.6028 4 22.9231V21.0769C4 20.3972 4.55578 19.8461 5.24138 19.8461H8.8747C9.93571 12.0282 16.6916 6.00001 24.8677 6.00001C24.995 6.00001 24.987 6.00001 24.9759 6.00001Z" fill="#E8E8E8"/>
<path fill-rule="evenodd" clip-rule="evenodd" d="M31.3424 24.1538C30.4349 26.8364 27.8789 28.7692 24.8677 28.7692C21.0969 28.7692 18.0401 25.7385 18.0401 22C18.0401 18.2615 21.0969 15.2308 24.8677 15.2308C27.8789 15.2308 30.4349 17.1636 31.3424 19.8461H38.7586C39.4442 19.8461 40 20.3972 40 21.0769V22.9231C40 23.6028 39.4442 24.1538 38.7586 24.1538H31.3424ZM27.3504 22C27.3504 23.3595 26.2388 24.4615 24.8677 24.4615C23.4965 24.4615 22.3849 23.3595 22.3849 22C22.3849 20.6405 23.4965 19.5385 24.8677 19.5385C26.2388 19.5385 27.3504 20.6405 27.3504 22Z" fill="#E8E8E8"/>
</svg>
