<?xml version="1.0" encoding="utf-8"?>
<!-- Generated by IcoMoon.io -->
<!DOCTYPE svg PUBLIC "-//W3C//DTD SVG 1.1//EN" "http://www.w3.org/Graphics/SVG/1.1/DTD/svg11.dtd">
<svg version="1.1" xmlns="http://www.w3.org/2000/svg" xmlns:xlink="http://www.w3.org/1999/xlink" width="16" height="16" viewBox="0 0 16 16">
<path fill="#eeeeee" d="M13.697 3.483l-0.923-1.12c-0.187-0.22-0.463-0.363-0.773-0.363h-8c-0.31 0-0.587 0.143-0.77 0.363l-0.923 1.12c-0.193 0.233-0.307 0.527-0.307 0.85v8.333c0 0.737 0.597 1.333 1.333 1.333h9.333c0.737 0 1.333-0.597 1.333-1.333v-8.333c0-0.323-0.113-0.617-0.303-0.85zM8 11.667l-3.667-3.667h2.333v-1.333h2.667v1.333h2.333l-3.667 3.667zM3.417 3.333l0.543-0.667h8l0.623 0.667h-9.167z"></path>
</svg>
