<?xml version="1.0" encoding="utf-8"?>
<!-- Generated by IcoMoon.io -->
<!DOCTYPE svg PUBLIC "-//W3C//DTD SVG 1.1//EN" "http://www.w3.org/Graphics/SVG/1.1/DTD/svg11.dtd">
<svg version="1.1" xmlns="http://www.w3.org/2000/svg" xmlns:xlink="http://www.w3.org/1999/xlink" width="16" height="16" viewBox="0 0 16 16">
<path fill="#eeeeee" d="M12.667 2h-2.79c-0.273-0.773-1.007-1.333-1.877-1.333s-1.603 0.56-1.877 1.333h-2.79c-0.737 0-1.333 0.597-1.333 1.333v9.333c0 0.737 0.597 1.333 1.333 1.333h9.333c0.737 0 1.333-0.597 1.333-1.333v-9.333c0-0.737-0.597-1.333-1.333-1.333zM8 2c0.367 0 0.667 0.297 0.667 0.667s-0.3 0.667-0.667 0.667-0.667-0.297-0.667-0.667 0.3-0.667 0.667-0.667zM8 4.667c1.103 0 2 0.897 2 2 0 1.107-0.897 2-2 2s-2-0.893-2-2c0-1.103 0.897-2 2-2zM12 12.667h-8v-0.933c0-1.333 2.667-2.067 4-2.067s4 0.733 4 2.067v0.933z"></path>
</svg>
