<?xml version="1.0" encoding="utf-8"?>
<!-- Generated by IcoMoon.io -->
<!DOCTYPE svg PUBLIC "-//W3C//DTD SVG 1.1//EN" "http://www.w3.org/Graphics/SVG/1.1/DTD/svg11.dtd">
<svg version="1.1" xmlns="http://www.w3.org/2000/svg" xmlns:xlink="http://www.w3.org/1999/xlink" width="16" height="16" viewBox="0 0 16 16">
<path fill="#eeeeee" d="M13.333 5.333h-1.873c-0.3-0.52-0.713-0.97-1.21-1.307l1.083-1.083-0.943-0.943-1.45 1.45c-0.3-0.073-0.617-0.117-0.94-0.117s-0.64 0.043-0.94 0.117l-1.45-1.45-0.943 0.943 1.083 1.083c-0.497 0.337-0.91 0.787-1.21 1.307h-1.873v1.333h1.393c-0.037 0.217-0.060 0.44-0.060 0.667v0.667h-1.333v1.333h1.333v0.667c0 0.227 0.023 0.45 0.060 0.667h-1.393v1.333h1.873c0.69 1.193 1.98 2 3.46 2s2.77-0.807 3.46-2h1.873v-1.333h-1.393c0.037-0.217 0.060-0.44 0.060-0.667v-0.667h1.333v-1.333h-1.333v-0.667c0-0.227-0.023-0.45-0.060-0.667h1.393v-1.333zM9.333 10.667h-2.667v-1.333h2.667v1.333zM9.333 8h-2.667v-1.333h2.667v1.333z"></path>
</svg>
