<?xml version="1.0" encoding="utf-8"?>
<!-- Generated by IcoMoon.io -->
<!DOCTYPE svg PUBLIC "-//W3C//DTD SVG 1.1//EN" "http://www.w3.org/Graphics/SVG/1.1/DTD/svg11.dtd">
<svg version="1.1" xmlns="http://www.w3.org/2000/svg" xmlns:xlink="http://www.w3.org/1999/xlink" width="16" height="16" viewBox="0 0 16 16">
<path fill="#eeeeee" d="M8 4.667c0.737 0 1.333-0.597 1.333-1.333 0-0.25-0.070-0.487-0.19-0.687l-1.143-1.98-1.143 1.98c-0.12 0.2-0.19 0.437-0.19 0.687 0 0.737 0.597 1.333 1.333 1.333zM14 14v-2.667c0-0.737-0.597-1.333-1.333-1.333h-0.667v-2c0-0.737-0.597-1.333-1.333-1.333h-2v-1.333h-1.333v1.333h-2c-0.737 0-1.333 0.597-1.333 1.333v2h-0.667c-0.737 0-1.333 0.597-1.333 1.333v2.667h-1.333v1.333h14.667v-1.333h-1.333z"></path>
</svg>
