<?xml version="1.0" encoding="utf-8"?>
<!-- Generated by IcoMoon.io -->
<!DOCTYPE svg PUBLIC "-//W3C//DTD SVG 1.1//EN" "http://www.w3.org/Graphics/SVG/1.1/DTD/svg11.dtd">
<svg version="1.1" xmlns="http://www.w3.org/2000/svg" xmlns:xlink="http://www.w3.org/1999/xlink" width="16" height="16" viewBox="0 0 16 16">
<path fill="#eeeeee" d="M6.267 7l3.177-5.503c-0.463-0.103-0.947-0.163-1.443-0.163-1.6 0-3.063 0.563-4.213 1.503l2.443 4.23 0.037-0.067zM14.36 6c-0.613-1.95-2.1-3.507-3.997-4.227l-2.44 4.227h6.437zM14.533 6.667h-4.993l0.193 0.333 3.177 5.5c1.087-1.187 1.757-2.763 1.757-4.5 0-0.457-0.047-0.903-0.133-1.333zM5.69 8l-2.6-4.5c-1.087 1.187-1.757 2.763-1.757 4.5 0 0.457 0.047 0.903 0.133 1.333h4.993l-0.77-1.333zM1.64 10c0.613 1.95 2.1 3.507 3.997 4.227l2.44-4.227h-6.437zM9.153 10l-2.6 4.503c0.467 0.103 0.95 0.163 1.447 0.163 1.6 0 3.063-0.563 4.213-1.503l-2.443-4.23-0.617 1.067z"></path>
</svg>
