<?xml version="1.0" encoding="utf-8"?>
<!-- Generated by IcoMoon.io -->
<!DOCTYPE svg PUBLIC "-//W3C//DTD SVG 1.1//EN" "http://www.w3.org/Graphics/SVG/1.1/DTD/svg11.dtd">
<svg version="1.1" xmlns="http://www.w3.org/2000/svg" xmlns:xlink="http://www.w3.org/1999/xlink" width="16" height="16" viewBox="0 0 16 16">
<path fill="#eeeeee" d="M12.903 6.69c-0.453-2.293-2.477-4.023-4.903-4.023-0.983 0-1.9 0.29-2.673 0.78l0.973 0.973c0.51-0.263 1.087-0.42 1.7-0.42 2.027 0 3.667 1.64 3.667 3.667v0.333h1c1.103 0 2 0.897 2 2 0 0.757-0.423 1.407-1.043 1.747l0.967 0.967c0.85-0.603 1.41-1.59 1.41-2.713 0-1.76-1.37-3.187-3.097-3.31zM2 3.517l1.833 1.827c-2.127 0.090-3.833 1.84-3.833 3.99 0 2.21 1.79 4 4 4h7.817l1.333 1.333 0.85-0.847-11.15-11.153-0.85 0.85zM5.15 6.667l5.333 5.333h-6.483c-1.473 0-2.667-1.193-2.667-2.667s1.193-2.667 2.667-2.667h1.15z"></path>
</svg>
