<?xml version="1.0" encoding="utf-8"?>
<!-- Generated by IcoMoon.io -->
<!DOCTYPE svg PUBLIC "-//W3C//DTD SVG 1.1//EN" "http://www.w3.org/Graphics/SVG/1.1/DTD/svg11.dtd">
<svg version="1.1" xmlns="http://www.w3.org/2000/svg" xmlns:xlink="http://www.w3.org/1999/xlink" width="16" height="16" viewBox="0 0 16 16">
<path fill="#eeeeee" d="M8 1.333c-2.947 0-5.333 0.333-5.333 2.667v6.333c0 1.29 1.047 2.333 2.333 2.333l-1 1v0.333h8v-0.333l-1-1c1.29 0 2.333-1.043 2.333-2.333v-6.333c0-2.333-2.387-2.667-5.333-2.667zM5 11.333c-0.553 0-1-0.447-1-1s0.447-1 1-1 1 0.447 1 1-0.447 1-1 1zM7.333 7.333h-3.333v-3.333h3.333v3.333zM11 11.333c-0.553 0-1-0.447-1-1s0.447-1 1-1 1 0.447 1 1-0.447 1-1 1zM12 7.333h-3.333v-3.333h3.333v3.333z"></path>
</svg>
