<?xml version="1.0" encoding="utf-8"?>
<!-- Generated by IcoMoon.io -->
<!DOCTYPE svg PUBLIC "-//W3C//DTD SVG 1.1//EN" "http://www.w3.org/Graphics/SVG/1.1/DTD/svg11.dtd">
<svg version="1.1" xmlns="http://www.w3.org/2000/svg" xmlns:xlink="http://www.w3.org/1999/xlink" width="16" height="16" viewBox="0 0 16 16">
<path fill="#eeeeee" d="M2.667 10.667c0 0.59 0.26 1.113 0.667 1.48v1.187c0 0.367 0.3 0.667 0.667 0.667h0.667c0.37 0 0.667-0.3 0.667-0.667v-0.667h5.333v0.667c0 0.367 0.297 0.667 0.667 0.667h0.667c0.367 0 0.667-0.3 0.667-0.667v-1.187c0.407-0.367 0.667-0.89 0.667-1.48v-6.667c0-2.333-2.387-2.667-5.333-2.667s-5.333 0.333-5.333 2.667v6.667zM5 11.333c-0.553 0-1-0.447-1-1s0.447-1 1-1 1 0.447 1 1-0.447 1-1 1zM11 11.333c-0.553 0-1-0.447-1-1s0.447-1 1-1 1 0.447 1 1-0.447 1-1 1zM12 7.333h-8v-3.333h8v3.333z"></path>
</svg>
