<?xml version="1.0" encoding="utf-8"?>
<!-- Generated by IcoMoon.io -->
<!DOCTYPE svg PUBLIC "-//W3C//DTD SVG 1.1//EN" "http://www.w3.org/Graphics/SVG/1.1/DTD/svg11.dtd">
<svg version="1.1" xmlns="http://www.w3.org/2000/svg" xmlns:xlink="http://www.w3.org/1999/xlink" width="16" height="16" viewBox="0 0 16 16">
<path fill="#eeeeee" d="M10.667 3.2c0.66 0 1.2-0.537 1.2-1.2s-0.54-1.2-1.2-1.2c-0.663 0-1.2 0.537-1.2 1.2s0.537 1.2 1.2 1.2zM12.667 8c-1.84 0-3.333 1.493-3.333 3.333s1.493 3.333 3.333 3.333 3.333-1.493 3.333-3.333-1.493-3.333-3.333-3.333zM12.667 13.667c-1.29 0-2.333-1.043-2.333-2.333s1.043-2.333 2.333-2.333 2.333 1.043 2.333 2.333-1.043 2.333-2.333 2.333zM9.867 6.667h2.8v-1.2h-2.133l-1.29-2.177c-0.197-0.333-0.56-0.557-0.977-0.557-0.313 0-0.597 0.127-0.8 0.333l-2.467 2.463c-0.207 0.207-0.333 0.49-0.333 0.803 0 0.42 0.223 0.773 0.567 0.98l2.233 1.353v3.333h1.2v-4.32l-1.5-1.113 1.547-1.553 1.153 1.653zM3.333 8c-1.84 0-3.333 1.493-3.333 3.333s1.493 3.333 3.333 3.333 3.333-1.493 3.333-3.333-1.493-3.333-3.333-3.333zM3.333 13.667c-1.29 0-2.333-1.043-2.333-2.333s1.043-2.333 2.333-2.333 2.333 1.043 2.333 2.333-1.043 2.333-2.333 2.333z"></path>
</svg>
