<?xml version="1.0" encoding="utf-8"?>
<!-- Generated by IcoMoon.io -->
<!DOCTYPE svg PUBLIC "-//W3C//DTD SVG 1.1//EN" "http://www.w3.org/Graphics/SVG/1.1/DTD/svg11.dtd">
<svg version="1.1" xmlns="http://www.w3.org/2000/svg" xmlns:xlink="http://www.w3.org/1999/xlink" width="16" height="16" viewBox="0 0 16 16">
<path fill="#eeeeee" d="M13.333 8.667h-10.667c-0.367 0-0.667 0.3-0.667 0.667v4c0 0.367 0.3 0.667 0.667 0.667h10.667c0.367 0 0.667-0.3 0.667-0.667v-4c0-0.367-0.3-0.667-0.667-0.667zM4.667 12.667c-0.737 0-1.333-0.597-1.333-1.333s0.597-1.333 1.333-1.333 1.333 0.597 1.333 1.333-0.597 1.333-1.333 1.333zM13.333 2h-10.667c-0.367 0-0.667 0.3-0.667 0.667v4c0 0.367 0.3 0.667 0.667 0.667h10.667c0.367 0 0.667-0.3 0.667-0.667v-4c0-0.367-0.3-0.667-0.667-0.667zM4.667 6c-0.737 0-1.333-0.597-1.333-1.333s0.597-1.333 1.333-1.333 1.333 0.597 1.333 1.333-0.597 1.333-1.333 1.333z"></path>
</svg>
