<?xml version="1.0" encoding="utf-8"?>
<!-- Generated by IcoMoon.io -->
<!DOCTYPE svg PUBLIC "-//W3C//DTD SVG 1.1//EN" "http://www.w3.org/Graphics/SVG/1.1/DTD/svg11.dtd">
<svg version="1.1" xmlns="http://www.w3.org/2000/svg" xmlns:xlink="http://www.w3.org/1999/xlink" width="16" height="16" viewBox="0 0 16 16">
<path fill="#eeeeee" d="M8 4.667v-2.667h-6.667v12h13.333v-9.333h-6.667zM4 12.667h-1.333v-1.333h1.333v1.333zM4 10h-1.333v-1.333h1.333v1.333zM4 7.333h-1.333v-1.333h1.333v1.333zM4 4.667h-1.333v-1.333h1.333v1.333zM6.667 12.667h-1.333v-1.333h1.333v1.333zM6.667 10h-1.333v-1.333h1.333v1.333zM6.667 7.333h-1.333v-1.333h1.333v1.333zM6.667 4.667h-1.333v-1.333h1.333v1.333zM13.333 12.667h-5.333v-1.333h1.333v-1.333h-1.333v-1.333h1.333v-1.333h-1.333v-1.333h5.333v6.667zM12 7.333h-1.333v1.333h1.333v-1.333zM12 10h-1.333v1.333h1.333v-1.333z"></path>
</svg>
