<?xml version="1.0" encoding="utf-8"?>
<!-- Generated by IcoMoon.io -->
<!DOCTYPE svg PUBLIC "-//W3C//DTD SVG 1.1//EN" "http://www.w3.org/Graphics/SVG/1.1/DTD/svg11.dtd">
<svg version="1.1" xmlns="http://www.w3.org/2000/svg" xmlns:xlink="http://www.w3.org/1999/xlink" width="16" height="16" viewBox="0 0 16 16">
<path fill="#eeeeee" d="M14 2h-12c-0.737 0-1.333 0.597-1.333 1.333v8c0 0.737 0.597 1.333 1.333 1.333h3.333v1.333h5.333v-1.333h3.333c0.737 0 1.327-0.597 1.327-1.333l0.007-8c0-0.737-0.597-1.333-1.333-1.333zM14 11.333h-12v-8h12v8zM12.667 5.333h-7.333v1.333h7.333v-1.333zM12.667 8h-7.333v1.333h7.333v-1.333zM4.667 5.333h-1.333v1.333h1.333v-1.333zM4.667 8h-1.333v1.333h1.333v-1.333z"></path>
</svg>
