<?xml version="1.0" encoding="utf-8"?>
<!-- Generated by IcoMoon.io -->
<!DOCTYPE svg PUBLIC "-//W3C//DTD SVG 1.1//EN" "http://www.w3.org/Graphics/SVG/1.1/DTD/svg11.dtd">
<svg version="1.1" xmlns="http://www.w3.org/2000/svg" xmlns:xlink="http://www.w3.org/1999/xlink" width="16" height="16" viewBox="0 0 16 16">
<path fill="#eeeeee" d="M13.667 7.333h-1v-2.667c0-0.737-0.597-1.333-1.333-1.333h-2.667v-1c0-0.92-0.747-1.667-1.667-1.667s-1.667 0.747-1.667 1.667v1h-2.667c-0.737 0-1.327 0.597-1.327 1.333l-0.003 2.533h0.997c0.993 0 1.8 0.807 1.8 1.8s-0.807 1.8-1.8 1.8h-0.997l-0.003 2.533c0 0.737 0.597 1.333 1.333 1.333h2.533v-1c0-0.993 0.807-1.8 1.8-1.8s1.8 0.807 1.8 1.8v1h2.533c0.737 0 1.333-0.597 1.333-1.333v-2.667h1c0.92 0 1.667-0.747 1.667-1.667s-0.747-1.667-1.667-1.667z"></path>
</svg>
