<?xml version="1.0" encoding="utf-8"?>
<!-- Generated by IcoMoon.io -->
<!DOCTYPE svg PUBLIC "-//W3C//DTD SVG 1.1//EN" "http://www.w3.org/Graphics/SVG/1.1/DTD/svg11.dtd">
<svg version="1.1" xmlns="http://www.w3.org/2000/svg" xmlns:xlink="http://www.w3.org/1999/xlink" width="16" height="16" viewBox="0 0 16 16">
<path fill="#eeeeee" d="M9.797 11.403c-0.497 0.383-1.133 0.597-1.797 0.597s-1.3-0.213-1.797-0.597c-0.143-0.113-0.353-0.087-0.467 0.060s-0.087 0.353 0.060 0.467c0.61 0.473 1.393 0.737 2.203 0.737s1.593-0.263 2.203-0.737c0.147-0.113 0.173-0.323 0.060-0.467-0.113-0.147-0.323-0.173-0.467-0.060z"></path>
<path fill="#eeeeee" d="M6.333 8.333c0 0.368-0.298 0.667-0.667 0.667s-0.667-0.298-0.667-0.667c0-0.368 0.298-0.667 0.667-0.667s0.667 0.298 0.667 0.667z"></path>
<path fill="#eeeeee" d="M8 0c-4.417 0-8 3.583-8 8s3.583 8 8 8 8-3.583 8-8-3.583-8-8-8zM13.307 9.88c-0.727 2.493-2.847 4.303-5.36 4.303-2.517 0-4.64-1.817-5.363-4.317-0.793-0.067-1.417-0.787-1.417-1.673 0-0.847 0.57-1.543 1.31-1.663v-0.003c1.393-0.977 2.537-2.327 2.73-3.367l0.003 0.003v-0.010c0.903 1.75 4.2 3.46 7.883 3.373 0.067-0.010 0.13-0.023 0.197-0.023 0.85 0 1.54 0.757 1.54 1.69 0.003 0.927-0.68 1.68-1.523 1.687z"></path>
<path fill="#eeeeee" d="M11 8.333c0 0.368-0.298 0.667-0.667 0.667s-0.667-0.298-0.667-0.667c0-0.368 0.298-0.667 0.667-0.667s0.667 0.298 0.667 0.667z"></path>
</svg>
