<?xml version="1.0" encoding="utf-8"?>
<!-- Generated by IcoMoon.io -->
<!DOCTYPE svg PUBLIC "-//W3C//DTD SVG 1.1//EN" "http://www.w3.org/Graphics/SVG/1.1/DTD/svg11.dtd">
<svg version="1.1" xmlns="http://www.w3.org/2000/svg" xmlns:xlink="http://www.w3.org/1999/xlink" width="16" height="16" viewBox="0 0 16 16">
<path fill="#eeeeee" d="M13.333 13.057v-7.723l-4-4h-5.333c-0.737 0-1.327 0.597-1.327 1.333l-0.007 10.667c0 0.737 0.59 1.333 1.327 1.333h8.007c0.297 0 0.57-0.1 0.79-0.267l-2.957-2.957c-0.523 0.35-1.153 0.557-1.833 0.557-1.84 0-3.333-1.493-3.333-3.333s1.493-3.333 3.333-3.333 3.333 1.493 3.333 3.333c0 0.68-0.207 1.31-0.553 1.837l2.553 2.553zM6 8.667c0 1.103 0.897 2 2 2s2-0.897 2-2-0.897-2-2-2-2 0.897-2 2z"></path>
</svg>
