<?xml version="1.0" encoding="utf-8"?>
<!-- Generated by IcoMoon.io -->
<!DOCTYPE svg PUBLIC "-//W3C//DTD SVG 1.1//EN" "http://www.w3.org/Graphics/SVG/1.1/DTD/svg11.dtd">
<svg version="1.1" xmlns="http://www.w3.org/2000/svg" xmlns:xlink="http://www.w3.org/1999/xlink" width="16" height="16" viewBox="0 0 16 16">
<path fill="#eeeeee" d="M8 1.333c-3.683 0-6.667 2.983-6.667 6.667 0 3.68 2.983 6.667 6.667 6.667s6.667-2.987 6.667-6.667c0-3.683-2.983-6.667-6.667-6.667zM5.333 11.667c-0.92 0-1.667-0.747-1.667-1.667s0.747-1.667 1.667-1.667 1.667 0.747 1.667 1.667-0.747 1.667-1.667 1.667zM6.333 5.333c0-0.92 0.747-1.667 1.667-1.667s1.667 0.747 1.667 1.667-0.747 1.667-1.667 1.667-1.667-0.747-1.667-1.667zM10.667 11.667c-0.92 0-1.667-0.747-1.667-1.667s0.747-1.667 1.667-1.667 1.667 0.747 1.667 1.667-0.747 1.667-1.667 1.667z"></path>
</svg>
