<?xml version="1.0" encoding="utf-8"?>
<!-- Generated by IcoMoon.io -->
<!DOCTYPE svg PUBLIC "-//W3C//DTD SVG 1.1//EN" "http://www.w3.org/Graphics/SVG/1.1/DTD/svg11.dtd">
<svg version="1.1" xmlns="http://www.w3.org/2000/svg" xmlns:xlink="http://www.w3.org/1999/xlink" width="16" height="16" viewBox="0 0 16 16">
<path fill="#eeeeee" d="M5.4 8.897l1.887-1.887-4.677-4.677c-1.040 1.040-1.040 2.73 0 3.77l2.79 2.793zM9.923 7.687c1.017 0.477 2.453 0.14 3.513-0.92 1.277-1.277 1.52-3.1 0.543-4.077-0.98-0.977-2.807-0.733-4.080 0.543-1.060 1.060-1.393 2.497-0.92 3.513-1.483 1.48-6.51 6.507-6.51 6.507l0.943 0.943 4.587-4.587 4.587 4.587 0.943-0.943-4.587-4.587 0.98-0.98z"></path>
</svg>
