<?xml version="1.0" encoding="utf-8"?>
<!-- Generated by IcoMoon.io -->
<!DOCTYPE svg PUBLIC "-//W3C//DTD SVG 1.1//EN" "http://www.w3.org/Graphics/SVG/1.1/DTD/svg11.dtd">
<svg version="1.1" xmlns="http://www.w3.org/2000/svg" xmlns:xlink="http://www.w3.org/1999/xlink" width="16" height="16" viewBox="0 0 16 16">
<path fill="#eeeeee" d="M6.113 11.22c1.040 1.040 2.73 1.040 3.77 0s1.040-2.73 0-3.77l-3.77 3.77zM12 1.34l-8-0.007c-0.737 0-1.333 0.597-1.333 1.333v10.667c0 0.737 0.597 1.333 1.333 1.333h8c0.737 0 1.333-0.597 1.333-1.333v-10.667c0-0.737-0.597-1.327-1.333-1.327zM6.667 2.667c0.367 0 0.667 0.3 0.667 0.667s-0.3 0.667-0.667 0.667-0.667-0.3-0.667-0.667 0.3-0.667 0.667-0.667zM4.667 2.667c0.367 0 0.667 0.3 0.667 0.667s-0.3 0.667-0.667 0.667-0.667-0.3-0.667-0.667 0.3-0.667 0.667-0.667zM8 13.333c-2.21 0-4-1.79-4-4s1.79-4 4-4 4 1.79 4 4-1.79 4-4 4z"></path>
</svg>
