<?xml version="1.0" encoding="utf-8"?>
<!-- Generated by IcoMoon.io -->
<!DOCTYPE svg PUBLIC "-//W3C//DTD SVG 1.1//EN" "http://www.w3.org/Graphics/SVG/1.1/DTD/svg11.dtd">
<svg version="1.1" xmlns="http://www.w3.org/2000/svg" xmlns:xlink="http://www.w3.org/1999/xlink" width="16" height="16" viewBox="0 0 16 16">
<path fill="#eeeeee" d="M13.18 4.82l0.010-0.010-2.483-2.477-0.707 0.707 1.407 1.407c-0.627 0.24-1.073 0.843-1.073 1.553 0 0.92 0.747 1.667 1.667 1.667 0.237 0 0.463-0.050 0.667-0.14v4.807c0 0.367-0.3 0.667-0.667 0.667s-0.667-0.3-0.667-0.667v-3c0-0.737-0.597-1.333-1.333-1.333h-0.667v-4.667c0-0.737-0.597-1.333-1.333-1.333h-4c-0.737 0-1.333 0.597-1.333 1.333v10.667h6.667v-5h1v3.333c0 0.92 0.747 1.667 1.667 1.667s1.667-0.747 1.667-1.667v-6.333c0-0.46-0.187-0.877-0.487-1.18zM8 6.667h-4v-3.333h4v3.333zM12 6.667c-0.367 0-0.667-0.3-0.667-0.667s0.3-0.667 0.667-0.667 0.667 0.3 0.667 0.667-0.3 0.667-0.667 0.667z"></path>
</svg>
