<?xml version="1.0" encoding="utf-8"?>
<!-- Generated by IcoMoon.io -->
<!DOCTYPE svg PUBLIC "-//W3C//DTD SVG 1.1//EN" "http://www.w3.org/Graphics/SVG/1.1/DTD/svg11.dtd">
<svg version="1.1" xmlns="http://www.w3.org/2000/svg" xmlns:xlink="http://www.w3.org/1999/xlink" width="16" height="16" viewBox="0 0 16 16">
<path fill="#eeeeee" d="M8 14.667c3.313 0 6-2.687 6-6-3.313 0-6 2.687-6 6zM3.737 6.833c0 0.92 0.747 1.667 1.667 1.667 0.35 0 0.677-0.11 0.943-0.293l-0.013 0.127c0 0.92 0.747 1.667 1.667 1.667s1.667-0.747 1.667-1.667l-0.013-0.127c0.27 0.187 0.593 0.293 0.943 0.293 0.92 0 1.667-0.747 1.667-1.667 0-0.663-0.39-1.233-0.953-1.5 0.56-0.267 0.953-0.837 0.953-1.5 0-0.92-0.747-1.667-1.667-1.667-0.35 0-0.677 0.11-0.943 0.293l0.013-0.127c0-0.92-0.747-1.667-1.667-1.667s-1.667 0.747-1.667 1.667l0.013 0.127c-0.27-0.187-0.593-0.293-0.943-0.293-0.92 0-1.667 0.747-1.667 1.667 0 0.663 0.39 1.233 0.953 1.5-0.563 0.267-0.953 0.837-0.953 1.5zM8 3.667c0.92 0 1.667 0.747 1.667 1.667s-0.747 1.667-1.667 1.667-1.667-0.747-1.667-1.667 0.747-1.667 1.667-1.667zM2 8.667c0 3.313 2.687 6 6 6 0-3.313-2.687-6-6-6z"></path>
</svg>
