<?xml version="1.0" encoding="utf-8"?>
<!-- Generated by IcoMoon.io -->
<!DOCTYPE svg PUBLIC "-//W3C//DTD SVG 1.1//EN" "http://www.w3.org/Graphics/SVG/1.1/DTD/svg11.dtd">
<svg version="1.1" xmlns="http://www.w3.org/2000/svg" xmlns:xlink="http://www.w3.org/1999/xlink" width="16" height="16" viewBox="0 0 16 16">
<path fill="#eeeeee" d="M14.273 7.72l-5.997-5.997c-0.243-0.24-0.577-0.39-0.943-0.39h-4.667c-0.737 0-1.333 0.597-1.333 1.333v4.667c0 0.37 0.15 0.703 0.393 0.943l6 6c0.24 0.24 0.573 0.39 0.94 0.39s0.703-0.15 0.943-0.39l4.667-4.667c0.24-0.243 0.39-0.577 0.39-0.943 0-0.37-0.15-0.703-0.393-0.947zM3.667 4.667c-0.553 0-1-0.447-1-1s0.447-1 1-1 1 0.447 1 1-0.447 1-1 1z"></path>
</svg>
