<?xml version="1.0" encoding="utf-8"?>
<!-- Generated by IcoMoon.io -->
<!DOCTYPE svg PUBLIC "-//W3C//DTD SVG 1.1//EN" "http://www.w3.org/Graphics/SVG/1.1/DTD/svg11.dtd">
<svg version="1.1" xmlns="http://www.w3.org/2000/svg" xmlns:xlink="http://www.w3.org/1999/xlink" width="16" height="16" viewBox="0 0 16 16">
<path fill="#eeeeee" d="M8 9.333c1.103 0 1.993-0.897 1.993-2l0.007-4c0-1.107-0.893-2-2-2-1.103 0-2 0.893-2 2v4c0 1.103 0.897 2 2 2zM11.533 7.333c0 2-1.69 3.4-3.533 3.4-1.84 0-3.533-1.4-3.533-3.4h-1.133c0 2.277 1.813 4.157 4 4.48v2.187h1.333v-2.187c2.187-0.323 4-2.203 4-4.48h-1.133z"></path>
</svg>
