<?xml version="1.0" encoding="utf-8"?>
<!-- Generated by IcoMoon.io -->
<!DOCTYPE svg PUBLIC "-//W3C//DTD SVG 1.1//EN" "http://www.w3.org/Graphics/SVG/1.1/DTD/svg11.dtd">
<svg version="1.1" xmlns="http://www.w3.org/2000/svg" xmlns:xlink="http://www.w3.org/1999/xlink" width="16" height="16" viewBox="0 0 16 16">
<path fill="#eeeeee" d="M7.333 5.333c-1.103 0-2 0.897-2 2s0.897 2 2 2 2-0.897 2-2-0.897-2-2-2zM12.667 2h-9.333c-0.737 0-1.333 0.597-1.333 1.333v9.333c0 0.737 0.597 1.333 1.333 1.333h9.333c0.737 0 1.333-0.597 1.333-1.333v-9.333c0-0.737-0.597-1.333-1.333-1.333zM11.723 12.667l-2.553-2.553c-0.527 0.347-1.157 0.553-1.837 0.553-1.84 0-3.333-1.493-3.333-3.333s1.493-3.333 3.333-3.333 3.333 1.493 3.333 3.333c0 0.68-0.207 1.31-0.553 1.837l2.553 2.553-0.943 0.943z"></path>
</svg>
