<?xml version="1.0" encoding="utf-8"?>
<!-- Generated by IcoMoon.io -->
<!DOCTYPE svg PUBLIC "-//W3C//DTD SVG 1.1//EN" "http://www.w3.org/Graphics/SVG/1.1/DTD/svg11.dtd">
<svg version="1.1" xmlns="http://www.w3.org/2000/svg" xmlns:xlink="http://www.w3.org/1999/xlink" width="16" height="16" viewBox="0 0 16 16">
<path fill="#eeeeee" d="M13.333 2.667h-2.113l-1.22-1.333h-4l-1.22 1.333h-2.113c-0.737 0-1.333 0.597-1.333 1.333v8c0 0.737 0.597 1.333 1.333 1.333h10.667c0.737 0 1.333-0.597 1.333-1.333v-8c0-0.737-0.597-1.333-1.333-1.333zM8 4.667c1.087 0 2.043 0.53 2.653 1.333h-2.653c-1.103 0-2 0.897-2 2 0 0.237 0.047 0.457 0.123 0.667h-1.39c-0.043-0.217-0.067-0.437-0.067-0.667 0-1.84 1.493-3.333 3.333-3.333zM8 11.333c-1.087 0-2.043-0.527-2.65-1.333h2.65c1.103 0 2-0.897 2-2 0-0.233-0.047-0.457-0.123-0.667h1.39c0.043 0.217 0.067 0.437 0.067 0.667 0 1.84-1.493 3.333-3.333 3.333z"></path>
</svg>
