<?xml version="1.0" encoding="utf-8"?>
<!-- Generated by IcoMoon.io -->
<!DOCTYPE svg PUBLIC "-//W3C//DTD SVG 1.1//EN" "http://www.w3.org/Graphics/SVG/1.1/DTD/svg11.dtd">
<svg version="1.1" xmlns="http://www.w3.org/2000/svg" xmlns:xlink="http://www.w3.org/1999/xlink" width="16" height="16" viewBox="0 0 16 16">
<path fill="#eeeeee" d="M13.333 4h-2.667v-1.333l-1.333-1.333h-2.667l-1.333 1.333v1.333h-2.667c-0.737 0-1.327 0.597-1.327 1.333l-0.007 7.333c0 0.737 0.597 1.333 1.333 1.333h10.667c0.737 0 1.333-0.597 1.333-1.333v-7.333c0-0.737-0.597-1.333-1.333-1.333zM6.667 2.667h2.667v1.333h-2.667v-1.333zM7 11.667l-2.333-2.333 0.943-0.943 1.39 1.39 3.45-3.45 0.943 0.943-4.393 4.393z"></path>
</svg>
