<?xml version="1.0" encoding="utf-8"?>
<!-- Generated by IcoMoon.io -->
<!DOCTYPE svg PUBLIC "-//W3C//DTD SVG 1.1//EN" "http://www.w3.org/Graphics/SVG/1.1/DTD/svg11.dtd">
<svg version="1.1" xmlns="http://www.w3.org/2000/svg" xmlns:xlink="http://www.w3.org/1999/xlink" width="16" height="16" viewBox="0 0 16 16">
<path fill="#eeeeee" d="M8 1.333c-3.683 0-6.667 2.983-6.667 6.667s2.983 6.667 6.667 6.667 6.667-2.983 6.667-6.667-2.983-6.667-6.667-6.667zM7.333 13.287c-2.63-0.327-4.667-2.567-4.667-5.287 0-0.41 0.050-0.81 0.14-1.193l3.193 3.193v0.667c0 0.737 0.597 1.333 1.333 1.333v1.287zM11.93 11.597c-0.17-0.54-0.67-0.93-1.263-0.93h-0.667v-2c0-0.367-0.3-0.667-0.667-0.667h-4v-1.333h1.333c0.367 0 0.667-0.3 0.667-0.667v-1.333h1.333c0.737 0 1.333-0.597 1.333-1.333v-0.277c1.953 0.79 3.333 2.703 3.333 4.943 0 1.387-0.533 2.647-1.403 3.597z"></path>
</svg>
