<?xml version="1.0" encoding="utf-8"?>
<!-- Generated by IcoMoon.io -->
<!DOCTYPE svg PUBLIC "-//W3C//DTD SVG 1.1//EN" "http://www.w3.org/Graphics/SVG/1.1/DTD/svg11.dtd">
<svg version="1.1" xmlns="http://www.w3.org/2000/svg" xmlns:xlink="http://www.w3.org/1999/xlink" width="16" height="16" viewBox="0 0 16 16">
<path fill="#eeeeee" d="M12 11.333h-8v-1.333h8v1.333zM12 8.667h-8v-1.333h8v1.333zM12 6h-8v-1.333h8v1.333zM2 14.667l1-1 1 1 1-1 1 1 1-1 1 1 1-1 1 1 1-1 1 1 1-1 1 1v-13.333l-1 1-1-1-1 1-1-1-1 1-1-1-1 1-1-1-1 1-1-1-1 1-1-1v13.333z"></path>
</svg>
