<?xml version="1.0" encoding="utf-8"?>
<!-- Generated by IcoMoon.io -->
<!DOCTYPE svg PUBLIC "-//W3C//DTD SVG 1.1//EN" "http://www.w3.org/Graphics/SVG/1.1/DTD/svg11.dtd">
<svg version="1.1" xmlns="http://www.w3.org/2000/svg" xmlns:xlink="http://www.w3.org/1999/xlink" width="16" height="16" viewBox="0 0 16 16">
<path fill="#eeeeee" d="M8 6.667c-0.737 0-1.333 0.597-1.333 1.333s0.597 1.333 1.333 1.333 1.333-0.597 1.333-1.333-0.597-1.333-1.333-1.333zM12.667 2h-9.333c-0.737 0-1.333 0.597-1.333 1.333v9.333c0 0.737 0.597 1.333 1.333 1.333h9.333c0.737 0 1.333-0.597 1.333-1.333v-9.333c0-0.737-0.597-1.333-1.333-1.333zM11.5 8c0 0.153-0.013 0.307-0.033 0.457l0.987 0.773c0.087 0.070 0.113 0.197 0.053 0.297l-0.933 1.617c-0.057 0.1-0.18 0.14-0.287 0.1l-1.163-0.47c-0.24 0.187-0.503 0.34-0.79 0.46l-0.173 1.237c-0.013 0.11-0.11 0.197-0.227 0.197h-1.867c-0.117 0-0.213-0.087-0.23-0.197l-0.173-1.237c-0.283-0.117-0.547-0.273-0.79-0.46l-1.16 0.467c-0.107 0.040-0.227 0-0.287-0.1l-0.933-1.617c-0.060-0.1-0.033-0.227 0.053-0.297l0.987-0.77c-0.020-0.15-0.033-0.3-0.033-0.457 0-0.153 0.013-0.307 0.033-0.457l-0.987-0.77c-0.087-0.070-0.113-0.197-0.053-0.297l0.933-1.617c0.060-0.1 0.18-0.14 0.287-0.1l1.16 0.467c0.24-0.183 0.503-0.34 0.79-0.46l0.173-1.237c0.017-0.11 0.113-0.197 0.23-0.197h1.867c0.117 0 0.213 0.087 0.23 0.197l0.173 1.237c0.283 0.117 0.547 0.273 0.79 0.46l1.16-0.467c0.107-0.040 0.227 0 0.287 0.1l0.933 1.617c0.060 0.1 0.033 0.227-0.053 0.297l-0.987 0.773c0.020 0.147 0.033 0.3 0.033 0.453z"></path>
</svg>
