<?xml version="1.0" encoding="utf-8"?>
<!-- Generated by IcoMoon.io -->
<!DOCTYPE svg PUBLIC "-//W3C//DTD SVG 1.1//EN" "http://www.w3.org/Graphics/SVG/1.1/DTD/svg11.dtd">
<svg version="1.1" xmlns="http://www.w3.org/2000/svg" xmlns:xlink="http://www.w3.org/1999/xlink" width="16" height="16" viewBox="0 0 16 16">
<path fill="#eeeeee" d="M11.473 6l-2.92-4.37c-0.127-0.193-0.34-0.283-0.553-0.283s-0.427 0.093-0.553 0.283l-2.92 4.37h-3.193c-0.367 0-0.667 0.3-0.667 0.667 0 0.063 0.010 0.123 0.023 0.18l1.69 6.18c0.157 0.56 0.673 0.973 1.287 0.973h8.667c0.613 0 1.13-0.413 1.283-0.977l1.69-6.18c0.017-0.053 0.027-0.113 0.027-0.177 0-0.367-0.3-0.667-0.667-0.667h-3.193zM6 6l2-2.933 2 2.933h-4zM8 11.333c-0.737 0-1.333-0.597-1.333-1.333s0.597-1.333 1.333-1.333 1.333 0.597 1.333 1.333-0.597 1.333-1.333 1.333z"></path>
</svg>
