<?xml version="1.0" encoding="utf-8"?>
<!-- Generated by IcoMoon.io -->
<!DOCTYPE svg PUBLIC "-//W3C//DTD SVG 1.1//EN" "http://www.w3.org/Graphics/SVG/1.1/DTD/svg11.dtd">
<svg version="1.1" xmlns="http://www.w3.org/2000/svg" xmlns:xlink="http://www.w3.org/1999/xlink" width="16" height="16" viewBox="0 0 16 16">
<path fill="#eeeeee" d="M12 3.333v-1.333c0-0.737-0.597-1.333-1.333-1.333h-2.667c-0.737 0-1.333 0.597-1.333 1.333v1.333h-3.333v7.333c0 0.737 0.597 1.333 1.333 1.333h9.333c0.737 0 1.333-0.597 1.333-1.333v-7.333h-3.333zM8 2h2.667v1.333h-2.667v-1.333zM8 10v-4.667l3.667 2-3.667 2.667zM2 6h-1.333v7.333c0 0.737 0.597 1.333 1.333 1.333h9.333c0.737 0 1.333-0.597 1.333-1.333h-10.667v-7.333z"></path>
</svg>
