<?xml version="1.0" encoding="utf-8"?>
<!-- Generated by IcoMoon.io -->
<!DOCTYPE svg PUBLIC "-//W3C//DTD SVG 1.1//EN" "http://www.w3.org/Graphics/SVG/1.1/DTD/svg11.dtd">
<svg version="1.1" xmlns="http://www.w3.org/2000/svg" xmlns:xlink="http://www.w3.org/1999/xlink" width="16" height="16" viewBox="0 0 16 16">
<path fill="#eeeeee" d="M11.333 1.333h-6.667c-0.737 0-1.333 0.597-1.333 1.333v10.667c0 0.737 0.597 1.327 1.333 1.327l6.667 0.007c0.737 0 1.333-0.597 1.333-1.333v-10.667c0-0.737-0.597-1.333-1.333-1.333zM8 2.667c0.737 0 1.333 0.597 1.333 1.333s-0.597 1.333-1.333 1.333-1.333-0.597-1.333-1.333 0.597-1.333 1.333-1.333zM8 13.333c-1.84 0-3.333-1.493-3.333-3.333s1.493-3.333 3.333-3.333 3.333 1.493 3.333 3.333-1.493 3.333-3.333 3.333zM8 8c-1.103 0-2 0.897-2 2s0.897 2 2 2 2-0.897 2-2-0.897-2-2-2z"></path>
</svg>
