<?xml version="1.0" encoding="utf-8"?>
<!-- Generated by IcoMoon.io -->
<!DOCTYPE svg PUBLIC "-//W3C//DTD SVG 1.1//EN" "http://www.w3.org/Graphics/SVG/1.1/DTD/svg11.dtd">
<svg version="1.1" xmlns="http://www.w3.org/2000/svg" xmlns:xlink="http://www.w3.org/1999/xlink" width="16" height="16" viewBox="0 0 16 16">
<path fill="#eeeeee" d="M0.667 6h1.333v-1.333h-1.333v1.333zM0.667 8.667h1.333v-1.333h-1.333v1.333zM0.667 3.333h1.333v-1.333c-0.737 0-1.333 0.597-1.333 1.333zM6 14h1.333v-1.333h-1.333v1.333zM0.667 11.333h1.333v-1.333h-1.333v1.333zM2 14v-1.333h-1.333c0 0.737 0.597 1.333 1.333 1.333zM14 2h-5.333v4h6.667v-2.667c0-0.737-0.597-1.333-1.333-1.333zM14 11.333h1.333v-1.333h-1.333v1.333zM6 3.333h1.333v-1.333h-1.333v1.333zM3.333 14h1.333v-1.333h-1.333v1.333zM3.333 3.333h1.333v-1.333h-1.333v1.333zM14 14c0.737 0 1.333-0.597 1.333-1.333h-1.333v1.333zM14 8.667h1.333v-1.333h-1.333v1.333zM8.667 14h1.333v-1.333h-1.333v1.333zM11.333 14h1.333v-1.333h-1.333v1.333z"></path>
</svg>
