<?xml version="1.0" encoding="utf-8"?>
<!-- Generated by IcoMoon.io -->
<!DOCTYPE svg PUBLIC "-//W3C//DTD SVG 1.1//EN" "http://www.w3.org/Graphics/SVG/1.1/DTD/svg11.dtd">
<svg version="1.1" xmlns="http://www.w3.org/2000/svg" xmlns:xlink="http://www.w3.org/1999/xlink" width="32" height="32" viewBox="0 0 32 32">
<path fill="#eeeeee" d="M14.182 24.026l-5.831-6.741 1.662-1.662 4.169 3.26 7.806-6.897 1.662 1.662zM25.085 5.090c0.002 0.002 0.005 0.004 0.006 0.007v21.807c-0.002 0.002-0.004 0.005-0.006 0.006l-18.17-0c-0.002-0.002-0.005-0.004-0.006-0.006v-21.807c0.002-0.002 0.004-0.005 0.007-0.006h-3.643v21.82c0 2 1.636 3.637 3.637 3.637h18.183c2 0 3.637-1.636 3.637-3.637v-21.82h-3.643zM19.637 5.090v-1.818c0-1.004-0.814-1.818-1.818-1.818h-3.637c-1.004 0-1.818 0.814-1.818 1.818v1.818h-3.637v3.637h14.546v-3.637h-3.637zM17.818 5.090h-3.637v-1.818h3.637v1.818z"></path>
</svg>
