<?xml version="1.0" encoding="utf-8"?>
<!-- Generated by IcoMoon.io -->
<!DOCTYPE svg PUBLIC "-//W3C//DTD SVG 1.1//EN" "http://www.w3.org/Graphics/SVG/1.1/DTD/svg11.dtd">
<svg version="1.1" xmlns="http://www.w3.org/2000/svg" xmlns:xlink="http://www.w3.org/1999/xlink" width="16" height="16" viewBox="0 0 16 16">
<path fill="#eeeeee" d="M7.091 12.013l-2.916-3.37 0.831-0.831 2.085 1.63 3.903-3.448 0.831 0.831zM12.543 2.545c0.001 0.001 0.002 0.002 0.003 0.003v10.903c-0.001 0.001-0.002 0.002-0.003 0.003l-9.085-0c-0.001-0.001-0.002-0.002-0.003-0.003v-10.903c0.001-0.001 0.002-0.002 0.003-0.003h-1.822v10.91c0 1 0.818 1.818 1.818 1.818h9.091c1 0 1.818-0.818 1.818-1.818v-10.91h-1.822zM9.818 2.545v-0.909c0-0.502-0.407-0.909-0.909-0.909h-1.818c-0.502 0-0.909 0.407-0.909 0.909v0.909h-1.818v1.818h7.273v-1.818h-1.818zM8.909 2.545h-1.818v-0.909h1.818v0.909z"></path>
</svg>
