<?xml version="1.0" encoding="utf-8"?>
<!-- Generated by IcoMoon.io -->
<!DOCTYPE svg PUBLIC "-//W3C//DTD SVG 1.1//EN" "http://www.w3.org/Graphics/SVG/1.1/DTD/svg11.dtd">
<svg version="1.1" xmlns="http://www.w3.org/2000/svg" xmlns:xlink="http://www.w3.org/1999/xlink" width="16" height="16" viewBox="0 0 16 16">
<path fill="#eeeeee" d="M0.667 14h2.667v-8h-2.667v8zM15.333 6.667c0-0.737-0.597-1.333-1.333-1.333h-4.21l0.637-3.047c0.013-0.067 0.023-0.137 0.023-0.21 0-0.277-0.113-0.527-0.293-0.707l-0.71-0.703-4.39 4.39c-0.24 0.243-0.39 0.577-0.39 0.943v6.667c0 0.737 0.597 1.333 1.333 1.333h6c0.553 0 1.027-0.337 1.227-0.813l2.010-4.7c0.060-0.153 0.097-0.317 0.097-0.487v-1.277l-0.007-0.007 0.007-0.050z"></path>
</svg>
