<?xml version="1.0" encoding="utf-8"?>
<!-- Generated by IcoMoon.io -->
<!DOCTYPE svg PUBLIC "-//W3C//DTD SVG 1.1//EN" "http://www.w3.org/Graphics/SVG/1.1/DTD/svg11.dtd">
<svg version="1.1" xmlns="http://www.w3.org/2000/svg" xmlns:xlink="http://www.w3.org/1999/xlink" width="16" height="16" viewBox="0 0 16 16">
<path fill="#eeeeee" d="M4.503 3.23l-1.193-1.197-0.943 0.943 1.197 1.197 0.94-0.943zM2.667 7h-2v1.333h2v-1.333zM8.667 0.367h-1.333v1.967h1.333v-1.967zM13.633 2.977l-0.943-0.943-1.197 1.197 0.943 0.943 1.197-1.197zM11.497 12.103l1.197 1.197 0.943-0.943-1.197-1.197-0.943 0.943zM13.333 7v1.333h2v-1.333h-2zM8 3.667c-2.21 0-4 1.79-4 4s1.79 4 4 4 4-1.79 4-4-1.79-4-4-4zM7.333 14.967h1.333v-1.967h-1.333v1.967zM2.367 12.357l0.943 0.943 1.197-1.197-0.943-0.943-1.197 1.197z"></path>
</svg>
