<?xml version="1.0" encoding="utf-8"?>
<!-- Generated by IcoMoon.io -->
<!DOCTYPE svg PUBLIC "-//W3C//DTD SVG 1.1//EN" "http://www.w3.org/Graphics/SVG/1.1/DTD/svg11.dtd">
<svg version="1.1" xmlns="http://www.w3.org/2000/svg" xmlns:xlink="http://www.w3.org/1999/xlink" width="16" height="16" viewBox="0 0 16 16">
<path fill="#eeeeee" d="M9 0.447s0.493 1.767 0.493 3.2c0 1.373-0.9 2.49-2.277 2.49s-2.417-1.113-2.417-2.49l0.017-0.24c-1.34 1.603-2.15 3.67-2.15 5.927 0 2.947 2.387 5.333 5.333 5.333s5.333-2.387 5.333-5.333c0-3.597-1.73-6.803-4.333-8.887zM7.807 12.667c-1.187 0-2.15-0.937-2.15-2.093 0-1.083 0.697-1.843 1.877-2.080s2.4-0.803 3.077-1.717c0.26 0.86 0.397 1.767 0.397 2.69 0 1.763-1.433 3.2-3.2 3.2z"></path>
</svg>
