<?xml version="1.0" encoding="utf-8"?>
<!-- Generator: Adobe Illustrator 18.1.1, SVG Export Plug-In . SVG Version: 6.00 Build 0)  -->
<svg version="1.1" id="Layer_1" xmlns="http://www.w3.org/2000/svg" xmlns:xlink="http://www.w3.org/1999/xlink" x="0px" y="0px"
	 viewBox="-293 385 24 24" enable-background="new -293 385 24 24" xml:space="preserve">
<linearGradient id="SVGID_1_" gradientUnits="userSpaceOnUse" x1="-281" y1="387.1667" x2="-281" y2="407.1667">
	<stop  offset="0" style="stop-color:#A3A3A3"/>
	<stop  offset="1" style="stop-color:#7C7C7C"/>
</linearGradient>
<path fill="url(#SVGID_1_)" stroke="#666666" stroke-width="0.5" stroke-miterlimit="10" d="M-281,387c-5.5,0-10,4.5-10,10
	s4.5,10,10,10s10-4.5,10-10S-275.5,387-281,387z M-280,404h-2v-2h2V404z M-277.9,396.3l-0.9,0.9c-0.7,0.7-1.2,1.3-1.2,2.8h-2v-0.5
	c0-1.1,0.5-2.1,1.2-2.8l1.2-1.3c0.4-0.4,0.6-0.9,0.6-1.4c0-1.1-0.9-2-2-2s-2,0.9-2,2h-2c0-2.2,1.8-4,4-4s4,1.8,4,4
	C-277,394.9-277.4,395.7-277.9,396.3z"/>
</svg>
