<svg width="160" height="160" viewBox="0 0 160 160" fill="none" xmlns="http://www.w3.org/2000/svg">
<g clip-path="url(#clip0)">
<path fill-rule="evenodd" clip-rule="evenodd" d="M160 80C160 124.183 124.183 160 80 160C35.8172 160 0 124.183 0 80C0 35.8172 35.8172 0 80 0C124.183 0 160 35.8172 160 80ZM76.9529 59.4848C76.9529 50.0171 82.3449 47.5183 89.578 47.5183C93.9179 47.5183 97.0742 48.1759 99.8348 49.0965H100.362V43.1785C100.362 36.2084 94.4439 32 86.8163 32C66.169 32 59.2 48.0444 59.2 58.0382V117.479C59.2 123.66 64.1974 128 69.8524 128H76.9529V80.6581H84.5806C90.4986 80.6581 97.2057 76.9758 97.2057 70.6632V65.7973H76.9529V59.4848Z" fill="#E5E5E5"/>
</g>
<defs>
<clipPath id="clip0">
<rect width="160" height="160" fill="white"/>
</clipPath>
</defs>
</svg>
