<svg width="22" height="22" viewBox="0 0 22 22" fill="none" xmlns="http://www.w3.org/2000/svg">
<path fill-rule="evenodd" clip-rule="evenodd" d="M19 11C19 15.4183 15.4183 19 11 19C6.58172 19 3 15.4183 3 11C3 6.58172 6.58172 3 11 3C15.4183 3 19 6.58172 19 11ZM10.6953 8.94848C10.6953 8.00171 11.2345 7.75183 11.9578 7.75183C12.3918 7.75183 12.7074 7.81759 12.9835 7.90965H13.0362V7.31785C13.0362 6.62084 12.4444 6.2 11.6816 6.2C9.6169 6.2 8.92 7.80444 8.92 8.80382V14.7479C8.92 15.366 9.41974 15.8 9.98524 15.8H10.6953V11.0658H11.4581C12.0499 11.0658 12.7206 10.6976 12.7206 10.0663V9.57973H10.6953V8.94848Z" fill="#E5E5E5"/>
</svg>
