<svg width="240px" height="240px" viewBox="0 0 240 240" version="1.1" xmlns="http://www.w3.org/2000/svg" xmlns:xlink="http://www.w3.org/1999/xlink">
    <desc>ftrack icon</desc>
    <defs></defs>
    <g id="ftrack-icon" stroke="none" stroke-width="1" fill="none" fill-rule="evenodd">
        <circle id="circle" fill="#E9EAEA" cx="120" cy="120" r="100"></circle>
        <path d="M131.972533,79.3979246 C122.931128,79.3979246 116.191171,82.5213192 116.191171,94.3559711 L116.191171,102.246652 L141.507106,102.246652 L141.507106,108.329052 C141.507106,116.219734 133.123258,120.822631 125.725744,120.822631 L116.191171,120.822631 L116.191171,180 L107.315525,180 C100.246789,180 94,174.575157 94,166.848865 L94,92.54769 C94,80.0554814 102.711257,60 128.52036,60 C138.054933,60 145.452447,65.2604541 145.452447,73.9730813 L145.452447,81.3705949 L144.79352,81.3705949 C141.342717,80.2198705 137.397377,79.3979246 131.972533,79.3979246 Z" id="f" fill="#282E34"></path>
    </g>
</svg>