<?xml version="1.0" encoding="UTF-8" standalone="no"?>
<svg
   xmlns:dc="http://purl.org/dc/elements/1.1/"
   xmlns:cc="http://creativecommons.org/ns#"
   xmlns:rdf="http://www.w3.org/1999/02/22-rdf-syntax-ns#"
   xmlns:svg="http://www.w3.org/2000/svg"
   xmlns="http://www.w3.org/2000/svg"
   viewBox="0 0 576.08752 150.95"
   height="150.95"
   width="576.08752"
   xml:space="preserve"
   version="1.1"
   id="svg2"><metadata
     id="metadata8"><rdf:RDF><cc:Work
         rdf:about=""><dc:format>image/svg+xml</dc:format><dc:type
           rdf:resource="http://purl.org/dc/dcmitype/StillImage" /></cc:Work></rdf:RDF></metadata><defs
     id="defs6"><clipPath
       id="clipPath18"
       clipPathUnits="userSpaceOnUse"><path
         id="path20"
         d="M 0,1207.57 0,0 l 4608.68,0 0,1207.57 -4608.68,0 z" /></clipPath></defs><g
     transform="matrix(1.25,0,0,-1.25,0,150.95)"
     id="g10"><g
       transform="scale(0.1,0.1)"
       id="g12"><g
         id="g14"><g
           clip-path="url(#clipPath18)"
           id="g16"><path
             id="path22"
             style="fill:#EEEEEE;fill-opacity:1;fill-rule:nonzero;stroke:none"
             d="m 1733.54,891.969 c -25.2,8.398 -54,14.398 -93.6,14.398 -65.99,0 -115.19,-22.797 -115.19,-109.191 l 0,-57.602 184.79,0 0,-44.398 c 0,-57.598 -61.2,-91.196 -115.19,-91.196 l -69.6,0 0,-431.98 -64.8,0 c -51.6,0 -97.2,39.598 -97.2,95.992 l 0,542.379 c 0,91.195 63.6,237.589 251.99,237.589 69.6,0 123.6,-38.39 123.6,-101.991 l 0,-54 -4.8,0" /><path
             id="path24"
             style="fill:#EEEEEE;fill-opacity:1;fill-rule:nonzero;stroke:none"
             d="m 1857.15,921.969 c 21.6,25.195 50.39,44.394 75.59,44.394 l 37.2,0 0,-146.39 224.4,0 0,-65.996 c 0,-33.598 -30,-76.797 -96,-76.797 l -128.4,0 0,-253.192 c 0,-83.992 37.2,-116.394 102,-116.394 51.6,0 91.2,7.199 116.4,22.801 l 6,0 0,-57.594 c 0,-66 -48,-108 -141.6,-108 -163.19,0 -242.39,88.801 -242.39,239.992 l 0,388.777 c 0,63.598 12,87.598 46.8,128.399" /><path
             id="path26"
             style="fill:#EEEEEE;fill-opacity:1;fill-rule:nonzero;stroke:none"
             d="m 2657.53,662.777 c -24,9.602 -51.6,19.2 -93.59,19.2 -72,0 -111.6,-39.598 -111.6,-137.997 l 0,-371.98 -44.4,0 c -72,0 -117.59,35.992 -117.59,103.191 l 0,297.586 c 0,129.602 68.39,253.196 238.79,253.196 99.59,0 134.39,-56.399 134.39,-105.594 l 0,-57.602 -6,0" /><path
             id="path28"
             style="fill:#EEEEEE;fill-opacity:1;fill-rule:nonzero;stroke:none"
             d="m 3103.92,453.988 -57.6,0 c -122.4,0 -157.2,-28.797 -157.2,-81.597 0,-50.391 40.8,-80.391 111.6,-80.391 69.6,0 103.2,33.594 103.2,99.59 l 0,62.398 z m -87.6,-292.789 -32.4,0 c -153.59,0 -259.19,86.395 -259.19,205.196 0,115.195 84,202.785 321.59,202.785 l 56.4,0 0,8.406 c 0,91.187 -43.2,118.793 -139.2,118.793 -116.4,0 -181.19,-44.402 -205.19,-74.402 l -6,0 0,51.605 c 0,71.988 64.8,158.387 235.19,158.387 143.99,0 273.59,-67.199 273.59,-290.387 l 0,-148.793 c 0,-136.797 -100.8,-231.59 -244.79,-231.59" /><path
             id="path30"
             style="fill:#EEEEEE;fill-opacity:1;fill-rule:nonzero;stroke:none"
             d="m 3877.9,611.18 c -21.6,37.199 -82.8,67.195 -175.19,67.195 -93.6,0 -176.4,-75.598 -176.4,-171.594 0,-117.586 69.6,-197.984 178.8,-197.984 92.39,0 147.59,30 170.39,60 l 5.99,0 0,-74.406 C 3881.49,216.402 3805.9,160 3689.51,160 c -177.6,0 -331.19,137.992 -331.19,322.789 0,184.789 128.39,343.184 349.19,343.184 103.19,0 176.39,-62.399 176.39,-139.196 l 0,-75.597 -6,0" /><path
             id="path32"
             style="fill:#EEEEEE;fill-opacity:1;fill-rule:nonzero;stroke:none"
             d="m 4168.3,929.168 0,-386.383 c 94.8,127.192 144,183.59 198,235.192 38.4,35.996 76.8,41.996 128.39,41.996 l 92.4,0 0,-6 c -45.6,-38.403 -195.6,-208.789 -262.79,-293.989 51.6,-63.589 102,-129.597 159.6,-188.386 58.79,-58.797 85.19,-70.801 124.78,-84.004 -16.79,-51.594 -43.19,-79.196 -109.19,-79.196 -35.99,0 -78,16.801 -105.59,44.403 -82.8,85.191 -154.8,181.187 -225.6,275.984 l 0,-316.785 -55.19,0 c -72,0 -106.8,39.598 -106.8,113.992 l 0,749.968 51.6,0 c 78,0 110.39,-44.398 110.39,-106.792" /><path
             id="path34"
             style="fill:#EEEEEE;fill-opacity:1;fill-rule:nonzero;stroke:none"
             d="M 481.285,1207.57 9.10156,979.457 486.867,711.461 481.285,1207.57" /><path
             id="path36"
             style="fill:#EEEEEE;fill-opacity:1;fill-rule:nonzero;stroke:none"
             d="m 584.973,1175.66 8.773,-409.965 379.66,212.164 -388.433,197.801" /><path
             id="path38"
             style="fill:#EEEEEE;fill-opacity:1;fill-rule:nonzero;stroke:none"
             d="M 0.0273438,883.742 C -4.22656,878.426 459.48,630.633 459.48,630.633 l 0,-549.8127 L 38.3438,395.609 0.0273438,883.742" /><path
             id="path40"
             style="fill:#EEEEEE;fill-opacity:1;fill-rule:nonzero;stroke:none"
             d="M 548.969,641.27 555.195,0 1001.86,372.211 1051.84,940.105 548.969,641.27" /></g></g></g></g></svg>