<svg width="96" height="96" viewBox="0 0 96 96" fill="none" xmlns="http://www.w3.org/2000/svg">
<circle cx="48" cy="48" r="40.5" fill="#131920" stroke="#FFDD86" stroke-width="5"/>
<path fill-rule="evenodd" clip-rule="evenodd" d="M90.8206 51.9546C90.9393 50.6523 91 49.3332 91 48C91 46.6668 90.9393 45.3478 90.8206 44.0455H61.7363C60.076 38.6974 55.1371 34.818 49.3025 34.818C42.1061 34.818 36.2722 40.7197 36.2722 47.9998C36.2722 55.2799 42.1061 61.1816 49.3025 61.1816C55.1369 61.1816 60.0756 57.3025 61.7361 51.9546H90.8206ZM54.5148 48C54.5148 50.9121 52.1813 53.2727 49.3027 53.2727C46.4242 53.2727 44.0906 50.9121 44.0906 48C44.0906 45.088 46.4242 42.7273 49.3027 42.7273C52.1813 42.7273 54.5148 45.088 54.5148 48Z" fill="#FFDD86"/>
<path d="M5.17942 51.9546H20.9011C22.8077 66.1001 34.7972 77 49.3033 77H50.6063C54.5154 77 54.5154 72.8063 54.5154 72.8063V69.0908L49.3033 69.0909C37.7891 69.0909 28.4549 59.6482 28.4549 48C28.4549 36.3519 37.7891 26.9092 49.3033 26.9092H54.5154V22.9546C54.5154 22.9546 54.5154 19 50.6063 19C47.9496 19 48.7034 19 49.1864 19.0001C49.4141 19.0001 49.5816 19.0001 49.3033 19.0001C34.7972 19.0001 22.8076 29.9 20.9011 44.0455H5.17941C5.06067 45.3478 5 46.6668 5 48C5 49.3332 5.06068 50.6523 5.17942 51.9546Z" fill="#FFDD86"/>
</svg>
