<svg width="22" height="22" viewBox="0 0 22 22" fill="none" xmlns="http://www.w3.org/2000/svg">
<path d="M12.488 3C12.4753 3 12.4546 3 13.2097 3C14.2959 3 14.2959 4.07693 14.2959 4.07693V5.15387C14.1388 5.13757 13.2433 5.14637 12.7443 5.15127C12.5955 5.15274 12.482 5.15385 12.4338 5.15385C9.17725 5.15385 6.53728 7.77126 6.53728 11C6.53728 14.2287 9.17725 16.8462 12.4338 16.8462L14.2959 16.8461V17.9231C14.2959 17.9231 14.2959 19 13.2097 19C12.4572 19 12.4752 19 12.4878 19C12.4934 19 12.498 19 12.4338 19C8.34582 19 4.96785 15.9859 4.43735 12.0769H2.62069C2.27789 12.0769 2 11.8014 2 11.4615V10.5385C2 10.1986 2.27789 9.92307 2.62069 9.92307H4.43735C4.96785 6.01408 8.34582 3.00001 12.4338 3.00001C12.4975 3.00001 12.4935 3.00001 12.488 3Z" fill="#E8E8E8"/>
<path fill-rule="evenodd" clip-rule="evenodd" d="M15.6712 12.0769C15.2175 13.4182 13.9395 14.3846 12.4338 14.3846C10.5484 14.3846 9.02004 12.8693 9.02004 11C9.02004 9.13073 10.5484 7.61538 12.4338 7.61538C13.9395 7.61538 15.2175 8.58178 15.6712 9.92307H19.3793C19.7221 9.92307 20 10.1986 20 10.5385V11.4615C20 11.8014 19.7221 12.0769 19.3793 12.0769H15.6712ZM13.6752 11C13.6752 11.6797 13.1194 12.2308 12.4338 12.2308C11.7482 12.2308 11.1924 11.6797 11.1924 11C11.1924 10.3203 11.7482 9.76923 12.4338 9.76923C13.1194 9.76923 13.6752 10.3203 13.6752 11Z" fill="#E8E8E8"/>
</svg>
