<?xml version="1.0" encoding="UTF-8" standalone="no"?>
<svg
   xmlns:dc="http://purl.org/dc/elements/1.1/"
   xmlns:cc="http://creativecommons.org/ns#"
   xmlns:rdf="http://www.w3.org/1999/02/22-rdf-syntax-ns#"
   xmlns:svg="http://www.w3.org/2000/svg"
   xmlns="http://www.w3.org/2000/svg"
   xmlns:sodipodi="http://sodipodi.sourceforge.net/DTD/sodipodi-0.dtd"
   xmlns:inkscape="http://www.inkscape.org/namespaces/inkscape"
   width="64"
   height="64"
   viewBox="0 0 64 64"
   fill="none"
   version="1.1"
   id="svg3799"
   sodipodi:docname="menu_bar_dark_theme_windows.svg"
   inkscape:version="0.92.3 (2405546, 2018-03-11)">
  <metadata
     id="metadata3805">
    <rdf:RDF>
      <cc:Work
         rdf:about="">
        <dc:format>image/svg+xml</dc:format>
        <dc:type
           rdf:resource="http://purl.org/dc/dcmitype/StillImage" />
        <dc:title></dc:title>
      </cc:Work>
    </rdf:RDF>
  </metadata>
  <defs
     id="defs3803" />
  <sodipodi:namedview
     pagecolor="#ffffff"
     bordercolor="#666666"
     borderopacity="1"
     objecttolerance="10"
     gridtolerance="10"
     guidetolerance="10"
     inkscape:pageopacity="0"
     inkscape:pageshadow="2"
     inkscape:window-width="1920"
     inkscape:window-height="1080"
     id="namedview3801"
     showgrid="false"
     inkscape:zoom="13.359375"
     inkscape:cx="32"
     inkscape:cy="32"
     inkscape:window-x="0"
     inkscape:window-y="0"
     inkscape:window-maximized="1"
     inkscape:current-layer="svg3799" />
  <path
     fill-rule="evenodd"
     clip-rule="evenodd"
     d="M63.6299 36H43.1946C41.5473 40.6608 37.1023 44 31.8774 44C25.25 44 19.8774 38.6274 19.8774 32C19.8774 25.3726 25.25 20 31.8774 20C37.1023 20 41.5473 23.3392 43.1946 28H63.6299C61.6615 12.2148 48.1959 0 31.8774 0C15.5589 0 2.09334 12.2148 0.125 28.0001H6.18335C8.10742 15.5397 18.8784 6.00011 31.8774 6.00011C32.7409 6.00011 32.5327 6.00009 32.2904 6.00007C31.9532 6.00004 31.5499 6 33.8774 6C37.8774 6 37.8774 10.0001 37.8774 10.0001V14.0001H31.8774C21.9363 14.0001 13.8774 22.0589 13.8774 32.0001C13.8774 41.9413 21.9363 50.0001 31.8774 50.0001L37.8774 50V54C37.8774 54 37.8774 58.0001 33.8774 58L31.7931 58C18.8319 57.9588 8.10326 48.4336 6.18335 36.0001H0.125027C2.09347 51.7853 15.559 64 31.8774 64C48.1959 64 61.6615 51.7852 63.6299 36ZM31.8774 58.0001L31.7931 58C30.8109 58 31.8774 58.0001 31.8774 58.0001ZM63.8774 31.9553C63.8774 31.9702 63.8774 31.9851 63.8774 32C63.8774 32.0149 63.8774 32.0298 63.8774 32.0447V31.9553ZM35.8774 32C35.8774 34.2091 34.0865 36 31.8774 36C29.6683 36 27.8774 34.2091 27.8774 32C27.8774 29.7909 29.6683 28 31.8774 28C34.0865 28 35.8774 29.7909 35.8774 32Z"
     fill="white"
     id="path3797" />
</svg>
