<svg width="96" height="96" viewBox="0 0 96 96" fill="none" xmlns="http://www.w3.org/2000/svg">
<circle cx="48" cy="48" r="43" fill="#131920"/>
<path fill-rule="evenodd" clip-rule="evenodd" d="M91 48C91 71.7482 71.7482 91 48 91C24.2518 91 5 71.7482 5 48C5 24.2518 24.2518 5 48 5C71.7482 5 91 24.2518 91 48ZM87.551 50.6875C86.1692 71.3271 68.9897 87.6406 48 87.6406C27.0103 87.6406 9.8308 71.3271 8.44904 50.6875H26.6663C27.9888 61.2932 37.036 69.5 48 69.5L52.0312 69.5C54.7187 69.5 54.7187 66.8125 54.7187 66.8125V64.125H48C39.0944 64.125 31.875 56.9056 31.875 48C31.875 39.0944 39.0944 31.875 48 31.875H54.7187V29.1875C54.7187 29.1875 54.7187 26.5001 52.0312 26.5L48 26.5C37.036 26.5 27.9889 34.7068 26.6663 45.3125H8.44904C9.83083 24.6729 27.0103 8.35938 48 8.35938C68.9897 8.35938 86.1692 24.6729 87.551 45.3125H57.0167C55.8604 41.4271 52.2611 38.5938 48 38.5938C42.8051 38.5938 38.5937 42.8051 38.5937 48C38.5937 53.1949 42.8051 57.4062 48 57.4062C52.2611 57.4062 55.8604 54.5729 57.0167 50.6875H87.551ZM52.0312 48C52.0312 50.2264 50.2264 52.0312 48 52.0312C45.7736 52.0312 43.9687 50.2264 43.9687 48C43.9687 45.7736 45.7736 43.9687 48 43.9687C50.2264 43.9687 52.0312 45.7736 52.0312 48Z" fill="#FFDD86"/>
</svg>
