<svg width="22" height="22" viewBox="0 0 22 22" fill="none" xmlns="http://www.w3.org/2000/svg">
<path fill-rule="evenodd" clip-rule="evenodd" d="M18.9362 10H13.8274C13.4156 8.83481 12.3043 8 10.9981 8C9.34126 8 7.99812 9.34315 7.99812 11C7.99812 12.6569 9.34126 14 10.9981 14C12.3043 14 13.4156 13.1652 13.8274 12H18.9362C18.4441 15.9463 15.0777 19 10.9981 19C6.9185 19 3.55211 15.9463 3.06 12H4.57459C5.05457 15.1084 7.73672 17.4897 10.977 17.5C10.7315 17.5 10.9981 17.5 10.9981 17.5L10.977 17.5L11.4981 17.5C12.4981 17.5 12.4981 16.5 12.4981 16.5V15.5L10.9981 15.5C8.51283 15.5 6.49812 13.4853 6.49812 11C6.49812 8.51474 8.51283 6.50003 10.9981 6.50003H12.4981V5.50001C12.4981 5.50001 12.4981 4.5 11.4981 4.5C10.9162 4.5 11.017 4.50001 11.1014 4.50002C11.1619 4.50002 11.214 4.50003 10.9981 4.50003C7.74836 4.50003 5.05561 6.88491 4.57459 10H3.06C3.55208 6.0537 6.91848 3 10.9981 3C15.0777 3 18.4441 6.05369 18.9362 10ZM11.9981 11C11.9981 11.5523 11.5504 12 10.9981 12C10.4458 12 9.99812 11.5523 9.99812 11C9.99812 10.4477 10.4458 10 10.9981 10C11.5504 10 11.9981 10.4477 11.9981 11Z" fill="#202020"/>
</svg>
