<svg width="32" height="32" viewBox="0 0 32 32" fill="none" xmlns="http://www.w3.org/2000/svg">
<g clip-path="url(#clip0_602_5758)">
<rect width="32" height="32" rx="16" fill="#131920"/>
<path fill-rule="evenodd" clip-rule="evenodd" d="M0.0693874 17.5C0.825588 25.6332 7.66927 32 16 32C24.3307 32 31.1744 25.6332 31.9306 17.5H32V14.5H31.9306C31.1744 6.36681 24.3307 0 16 0C7.66927 0 0.825587 6.36681 0.0693873 14.5H-1V17.5H0.0693874ZM16 30C23.2252 30 29.1721 24.5266 29.9206 17.5H20.7711C20.134 19.5286 18.2388 21 16 21C13.2386 21 11 18.7614 11 16C11 13.2386 13.2386 11 16 11C18.2388 11 20.134 12.4714 20.7711 14.5H29.9206C29.1721 7.47335 23.2252 2 16 2C8.77475 2 2.82787 7.47335 2.07942 14.5H5.10142C5.83303 9.13449 10.4337 5.00003 16 5.00003L17.5 5C19 5 19 6.50001 19 6.50001V8.00003H16C11.5817 8.00003 8 11.5818 8 16C8 20.4183 11.5817 24 16 24L19 24V25.4093C19 25.4093 19 27 17.5 27H16C10.4337 27 5.83299 22.8655 5.10141 17.5H2.07942C2.82787 24.5266 8.77475 30 16 30ZM18 16C18 17.1046 17.1046 18 16 18C14.8954 18 14 17.1046 14 16C14 14.8954 14.8954 14 16 14C17.1046 14 18 14.8954 18 16Z" fill="#FFDD86"/>
</g>
<defs>
<clipPath id="clip0_602_5758">
<rect width="32" height="32" rx="16" fill="white"/>
</clipPath>
</defs>
</svg>
