<svg width="32" height="32" viewBox="0 0 32 32" fill="none" xmlns="http://www.w3.org/2000/svg">
<path d="M18.3973 3.00001C18.3769 3 18.3435 3 19.5601 3C21.3101 3 21.3101 4.75002 21.3101 4.75002V6.50003C21.0569 6.47355 19.6142 6.48785 18.8103 6.49582C18.5706 6.4982 18.3876 6.50001 18.3101 6.50001C13.0634 6.50001 8.81006 10.7533 8.81006 16C8.81006 21.2467 13.0634 25.5 18.3101 25.5L21.3101 25.5V27.25C21.3101 27.25 21.3101 29 19.5601 29C18.3477 29 18.3767 29 18.3971 29C18.4061 29 18.4134 29 18.3101 29C11.7238 29 6.28153 24.1021 5.42684 17.75H2.5C1.94772 17.75 1.5 17.3023 1.5 16.75V15.25C1.5 14.6977 1.94772 14.25 2.5 14.25H5.42684C6.28154 7.89788 11.7238 3.00001 18.3101 3.00001C18.4126 3.00001 18.4062 3.00001 18.3973 3.00001Z" fill="white"/>
<path fill-rule="evenodd" clip-rule="evenodd" d="M23.5258 17.75C22.7948 19.9296 20.7358 21.5 18.3101 21.5C15.2725 21.5 12.8101 19.0376 12.8101 16C12.8101 12.9624 15.2725 10.5 18.3101 10.5C20.7358 10.5 22.7948 12.0704 23.5258 14.25H29.5C30.0523 14.25 30.5 14.6977 30.5 15.25V16.75C30.5 17.3023 30.0523 17.75 29.5 17.75H23.5258ZM20.3101 16C20.3101 17.1046 19.4146 18 18.3101 18C17.2055 18 16.3101 17.1046 16.3101 16C16.3101 14.8954 17.2055 14 18.3101 14C19.4146 14 20.3101 14.8954 20.3101 16Z" fill="white"/>
</svg>
