<?xml version="1.0" encoding="utf-8"?>
<!-- Generator: Adobe Illustrator 26.0.3, SVG Export Plug-In . SVG Version: 6.00 Build 0)  -->
<svg version="1.1" id="Capa_1" xmlns="http://www.w3.org/2000/svg" xmlns:xlink="http://www.w3.org/1999/xlink" x="0px" y="0px"
	 viewBox="0 0 22 22" style="enable-background:new 0 0 22 22;" xml:space="preserve">
<style type="text/css">
	.st0{fill-rule:evenodd;clip-rule:evenodd;fill:#E8E8E8;}
</style>
<path class="st0" d="M21.8,9.6h-6.9c-0.6-1.6-2.1-2.7-3.8-2.7c-2.2,0-4.1,1.8-4.1,4.1c0,2.2,1.8,4.1,4.1,4.1c1.8,0,3.3-1.1,3.8-2.7
	h6.9c-0.7,5.3-5.2,9.5-10.8,9.5S0.9,17.7,0.2,12.4h2.1c0.7,4.2,4.3,7.4,8.7,7.5c-0.3,0,0,0,0,0h0h0.7c1.4,0,1.4-1.4,1.4-1.4v-1.4h-2
	c-3.4,0-6.1-2.7-6.1-6.1c0-3.4,2.7-6.1,6.1-6.1h2V3.5c0,0,0-1.4-1.4-1.4c-0.8,0-0.7,0-0.5,0c0.1,0,0.2,0-0.1,0c-4.4,0-8,3.2-8.7,7.5
	H0.2C0.9,4.3,5.5,0.2,11,0.2C16.5,0.2,21.1,4.3,21.8,9.6z M12.4,11c0,0.7-0.6,1.4-1.4,1.4c-0.7,0-1.4-0.6-1.4-1.4s0.6-1.4,1.4-1.4
	C11.7,9.6,12.4,10.3,12.4,11z"/>
</svg>
