<svg width="16" height="16" viewBox="0 0 16 16" fill="none" xmlns="http://www.w3.org/2000/svg">
<path fill-rule="evenodd" clip-rule="evenodd" d="M10 1H9C5.47357 1 2.55615 3.60771 2.0709 6.99996H0.5C0.223858 6.99996 0 7.22382 0 7.49996V8.49996C0 8.77611 0.223858 8.99996 0.5 8.99996H2.07089C2.55611 12.3923 5.47354 15 9 15H10C11 15 11 14 11 14V13H9C6.23853 13 4 10.7615 4 8C4 5.23853 6.23853 3 9 3H11V2.00002C11 2.00002 11 1.00008 10 1ZM11.8293 8.99996C11.4175 10.1652 10.3062 11 9 11C7.34315 11 6 9.65682 6 7.99996C6 6.34311 7.34315 4.99996 9 4.99996C10.3062 4.99996 11.4175 5.83477 11.8293 6.99996H15.5C15.7761 6.99996 16 7.22382 16 7.49996V8.49996C16 8.77611 15.7761 8.99996 15.5 8.99996H11.8293ZM10 7.99996C10 8.55225 9.55228 8.99996 9 8.99996C8.44772 8.99996 8 8.55225 8 7.99996C8 7.44768 8.44772 6.99996 9 6.99996C9.55228 6.99996 10 7.44768 10 7.99996Z" fill="white"/>
</svg>
