<svg width="16" height="16" viewBox="0 0 16 16" fill="none" xmlns="http://www.w3.org/2000/svg">
<path fill-rule="evenodd" clip-rule="evenodd" d="M10 1.00004H9C5.47357 1.00004 2.55615 3.60774 2.0709 7H0.5C0.223858 7 0 7.22386 0 7.5V8.5C0 8.77614 0.223858 9 0.5 9H2.07089C2.55611 12.3923 5.47354 15 9 15H10C11 15 11 14 11 14V13H9C6.23853 13 4 10.7615 4 8.00004C4 5.23856 6.23853 3.00004 9 3.00004H11V2.00006C11 2.00006 11 1.00012 10 1.00004ZM11.8293 9C11.4175 10.1652 10.3062 11 9 11C7.34315 11 6 9.65685 6 8C6 6.34315 7.34315 5 9 5C10.3062 5 11.4175 5.83481 11.8293 7H15.5C15.7761 7 16 7.22386 16 7.5V8.5C16 8.77614 15.7761 9 15.5 9H11.8293ZM10 8C10 8.55228 9.55228 9 9 9C8.44772 9 8 8.55228 8 8C8 7.44772 8.44772 7 9 7C9.55228 7 10 7.44772 10 8Z" fill="#222222"/>
</svg>
