<svg width="16" height="16" viewBox="0 0 16 16" fill="none" xmlns="http://www.w3.org/2000/svg">
<g clip-path="url(#clip0_602_5832)">
<circle cx="8" cy="8" r="8" fill="#131920"/>
<path fill-rule="evenodd" clip-rule="evenodd" d="M8.9697 2.66669L8.24242 2.6667C5.5436 2.6667 3.31298 4.67129 2.95827 7.27275H0V8.72729H2.95826C3.31297 11.3288 5.5436 13.3334 8.24242 13.3334H8.9697C9.69697 13.3334 9.69697 12.5621 9.69697 12.5621V11.8788L8.24242 11.8788C6.10023 11.8788 4.36364 10.1422 4.36364 8.00003C4.36364 5.85784 6.10023 4.12125 8.24242 4.12125H9.69697V3.39397C9.69697 3.39397 9.69697 2.66669 8.9697 2.66669ZM8.24242 10.4243C9.32791 10.4243 10.2468 9.71084 10.5557 8.72731H16V7.27276H10.5557C10.2468 6.28921 9.32792 5.57578 8.24242 5.57578C6.90355 5.57578 5.81818 6.66115 5.81818 8.00002C5.81818 9.33889 6.90355 10.4243 8.24242 10.4243ZM8.24243 8.96973C8.77798 8.96973 9.21213 8.53558 9.21213 8.00003C9.21213 7.46448 8.77798 7.03034 8.24243 7.03034C7.70688 7.03034 7.27273 7.46448 7.27273 8.00003C7.27273 8.53558 7.70688 8.96973 8.24243 8.96973Z" fill="#FFDD86"/>
</g>
<defs>
<clipPath id="clip0_602_5832">
<rect width="16" height="16" fill="white"/>
</clipPath>
</defs>
</svg>
