<?xml version="1.0" encoding="utf-8"?> <!-- Generator: IcoMoon.io --> <!DOCTYPE svg PUBLIC "-//W3C//DTD SVG 1.1//EN" "http://www.w3.org/Graphics/SVG/1.1/DTD/svg11.dtd"> <svg width="16" height="16" viewBox="0 0 16 16" xmlns="http://www.w3.org/2000/svg" xmlns:xlink="http://www.w3.org/1999/xlink" fill="#000000"><g><path d="M 16,6 L 10,6 L 12.243,3.757 C 11.109,2.624 9.603,2 8,2 C 6.397,2 4.891,2.624 3.757,3.757 C 2.624,4.891 2,6.397 2,8 C 2,9.603 2.624,11.109 3.757,12.243 C 4.891,13.376 6.397,14 8,14 C 9.603,14 11.109,13.376 12.243,12.243 C 12.337,12.148 12.428,12.051 12.515,11.951 L 14.020,13.268 C 12.554,14.942 10.401,16 8,16 C 3.582,16 0,12.418 0,8 C 0,3.582 3.582,0 8,0 C 10.209,0 12.209,0.896 13.656,2.344 L 16,0 L 16,6 Z"></path></g></svg>