<svg width="264" height="80" viewBox="0 0 264 80" fill="none" xmlns="http://www.w3.org/2000/svg">
<path d="M123.674 43.8436C122.799 42.7061 121.691 41.8311 120.349 41.2186C119.008 40.6061 117.622 40.2998 116.193 40.2998C114.443 40.2998 112.854 40.6352 111.424 41.3061C110.024 41.9477 108.814 42.8373 107.793 43.9748C106.802 45.1123 106.029 46.454 105.474 47.9998C104.92 49.5165 104.643 51.1498 104.643 52.8998C104.643 54.5331 104.906 56.079 105.431 57.5373C105.956 58.9956 106.714 60.279 107.706 61.3873C108.697 62.4956 109.908 63.3706 111.337 64.0123C112.766 64.654 114.385 64.9748 116.193 64.9748C117.972 64.9748 119.533 64.6102 120.874 63.8811C122.216 63.1519 123.354 62.1311 124.287 60.8186L127.831 63.4873C127.597 63.8081 127.189 64.2748 126.606 64.8873C126.022 65.4706 125.249 66.0686 124.287 66.6811C123.324 67.2644 122.158 67.7748 120.787 68.2123C119.445 68.679 117.885 68.9123 116.106 68.9123C113.656 68.9123 111.439 68.4456 109.456 67.5123C107.501 66.579 105.824 65.354 104.424 63.8373C103.054 62.3206 102.004 60.6144 101.274 58.7186C100.545 56.7936 100.181 54.854 100.181 52.8998C100.181 50.5081 100.574 48.3061 101.362 46.2936C102.149 44.2519 103.243 42.5019 104.643 41.0436C106.072 39.5561 107.779 38.404 109.762 37.5873C111.745 36.7706 113.933 36.3623 116.324 36.3623C118.366 36.3623 120.364 36.7561 122.318 37.5436C124.301 38.3311 125.92 39.5415 127.174 41.1748L123.674 43.8436Z" fill="#FFCD45"/>
<path d="M135.098 57.7561C135.098 58.8061 135.258 59.7831 135.579 60.6873C135.9 61.5623 136.352 62.3206 136.935 62.9623C137.518 63.5748 138.233 64.0706 139.079 64.4498C139.925 64.7998 140.873 64.9748 141.923 64.9748C142.973 64.9748 143.921 64.7998 144.766 64.4498C145.612 64.0706 146.327 63.5748 146.91 62.9623C147.493 62.3206 147.946 61.5623 148.266 60.6873C148.587 59.7831 148.748 58.8061 148.748 57.7561C148.748 56.7061 148.587 55.7436 148.266 54.8686C147.946 53.9644 147.493 53.2061 146.91 52.5936C146.327 51.9519 145.612 51.4561 144.766 51.1061C143.921 50.7269 142.973 50.5373 141.923 50.5373C140.873 50.5373 139.925 50.7269 139.079 51.1061C138.233 51.4561 137.518 51.9519 136.935 52.5936C136.352 53.2061 135.9 53.9644 135.579 54.8686C135.258 55.7436 135.098 56.7061 135.098 57.7561ZM130.898 57.7561C130.898 56.2394 131.175 54.8248 131.729 53.5123C132.312 52.1998 133.1 51.0477 134.091 50.0561C135.083 49.0644 136.25 48.2915 137.591 47.7373C138.933 47.154 140.377 46.8623 141.923 46.8623C143.468 46.8623 144.912 47.154 146.254 47.7373C147.596 48.2915 148.762 49.0644 149.754 50.0561C150.746 51.0477 151.518 52.1998 152.073 53.5123C152.656 54.8248 152.948 56.2394 152.948 57.7561C152.948 59.2727 152.656 60.7019 152.073 62.0436C151.518 63.3561 150.746 64.5081 149.754 65.4998C148.762 66.4623 147.596 67.2352 146.254 67.8186C144.912 68.3727 143.468 68.6498 141.923 68.6498C140.377 68.6498 138.933 68.3727 137.591 67.8186C136.25 67.2352 135.083 66.4623 134.091 65.4998C133.1 64.5081 132.312 63.3561 131.729 62.0436C131.175 60.7019 130.898 59.2727 130.898 57.7561Z" fill="#FFCD45"/>
<path d="M157.88 47.3873H161.818V50.5811H161.905C162.401 49.4727 163.262 48.5831 164.487 47.9123C165.712 47.2123 167.126 46.8623 168.73 46.8623C169.722 46.8623 170.67 47.0227 171.574 47.3436C172.508 47.6352 173.31 48.1019 173.98 48.7436C174.68 49.3852 175.235 50.2165 175.643 51.2373C176.051 52.229 176.255 53.4102 176.255 54.7811V68.1248H172.318V55.8748C172.318 54.9123 172.187 54.0956 171.924 53.4248C171.662 52.7248 171.312 52.1706 170.874 51.7623C170.437 51.3248 169.926 51.0186 169.343 50.8436C168.789 50.6394 168.205 50.5373 167.593 50.5373C166.776 50.5373 166.018 50.6686 165.318 50.9311C164.618 51.1936 164.005 51.6165 163.48 52.1998C162.955 52.754 162.547 53.4686 162.255 54.3436C161.964 55.2186 161.818 56.254 161.818 57.4498V68.1248H157.88V47.3873Z" fill="#FFCD45"/>
<path d="M182.191 47.3873H186.128V50.5811H186.216C186.712 49.4727 187.572 48.5831 188.797 47.9123C190.022 47.2123 191.437 46.8623 193.041 46.8623C194.032 46.8623 194.98 47.0227 195.884 47.3436C196.818 47.6352 197.62 48.1019 198.291 48.7436C198.991 49.3852 199.545 50.2165 199.953 51.2373C200.362 52.229 200.566 53.4102 200.566 54.7811V68.1248H196.628V55.8748C196.628 54.9123 196.497 54.0956 196.234 53.4248C195.972 52.7248 195.622 52.1706 195.184 51.7623C194.747 51.3248 194.237 51.0186 193.653 50.8436C193.099 50.6394 192.516 50.5373 191.903 50.5373C191.087 50.5373 190.328 50.6686 189.628 50.9311C188.928 51.1936 188.316 51.6165 187.791 52.1998C187.266 52.754 186.857 53.4686 186.566 54.3436C186.274 55.2186 186.128 56.254 186.128 57.4498V68.1248H182.191V47.3873Z" fill="#FFCD45"/>
<path d="M209.476 59.1998C209.476 60.104 209.666 60.9352 210.045 61.6936C210.453 62.4227 210.978 63.0498 211.62 63.5748C212.261 64.0998 213.005 64.5081 213.851 64.7998C214.697 65.0915 215.572 65.2373 216.476 65.2373C217.701 65.2373 218.766 64.9602 219.67 64.4061C220.574 63.8227 221.405 63.0644 222.164 62.1311L225.139 64.4061C222.951 67.2352 219.889 68.6498 215.951 68.6498C214.318 68.6498 212.83 68.3727 211.489 67.8186C210.176 67.2644 209.053 66.5061 208.12 65.5436C207.216 64.5519 206.516 63.3998 206.02 62.0873C205.524 60.7456 205.276 59.3019 205.276 57.7561C205.276 56.2102 205.539 54.7811 206.064 53.4686C206.618 52.1269 207.361 50.9748 208.295 50.0123C209.257 49.0206 210.395 48.2477 211.707 47.6936C213.02 47.1394 214.449 46.8623 215.995 46.8623C217.832 46.8623 219.378 47.1831 220.632 47.8248C221.916 48.4665 222.966 49.3123 223.782 50.3623C224.599 51.3831 225.182 52.5498 225.532 53.8623C225.911 55.1456 226.101 56.4581 226.101 57.7998V59.1998H209.476ZM221.901 56.0498C221.872 55.1748 221.726 54.3727 221.464 53.6436C221.23 52.9144 220.866 52.2873 220.37 51.7623C219.874 51.2081 219.247 50.7852 218.489 50.4936C217.759 50.1727 216.899 50.0123 215.907 50.0123C214.945 50.0123 214.055 50.2019 213.239 50.5811C212.451 50.9311 211.78 51.3977 211.226 51.9811C210.672 52.5644 210.234 53.2206 209.914 53.9498C209.622 54.6498 209.476 55.3498 209.476 56.0498H221.901Z" fill="#FFCD45"/>
<path d="M245.643 52.8998C244.913 52.1415 244.14 51.5727 243.324 51.1936C242.536 50.7852 241.588 50.5811 240.48 50.5811C239.401 50.5811 238.453 50.7852 237.636 51.1936C236.849 51.5727 236.178 52.1123 235.624 52.8123C235.099 53.4831 234.691 54.2706 234.399 55.1748C234.136 56.0498 234.005 56.9686 234.005 57.9311C234.005 58.8936 234.165 59.8123 234.486 60.6873C234.807 61.5331 235.259 62.2769 235.843 62.9186C236.426 63.5602 237.126 64.0706 237.943 64.4498C238.759 64.7998 239.678 64.9748 240.699 64.9748C241.807 64.9748 242.755 64.7852 243.543 64.4061C244.33 63.9977 245.059 63.4144 245.73 62.6561L248.53 65.4561C247.509 66.5936 246.313 67.4102 244.943 67.9061C243.601 68.4019 242.172 68.6498 240.655 68.6498C239.051 68.6498 237.578 68.3873 236.236 67.8623C234.924 67.3373 233.786 66.6081 232.824 65.6748C231.861 64.7123 231.118 63.5748 230.593 62.2623C230.068 60.9206 229.805 59.4477 229.805 57.8436C229.805 56.2394 230.068 54.7665 230.593 53.4248C231.118 52.0831 231.847 50.9311 232.78 49.9686C233.743 49.0061 234.88 48.2623 236.193 47.7373C237.534 47.1831 239.022 46.9061 240.655 46.9061C242.172 46.9061 243.615 47.1831 244.986 47.7373C246.386 48.2623 247.597 49.079 248.618 50.1873L245.643 52.8998Z" fill="#FFCD45"/>
<path d="M263.03 50.7998H257.386V60.2061C257.386 60.7894 257.401 61.3727 257.43 61.9561C257.459 62.5102 257.561 63.0206 257.736 63.4873C257.94 63.9248 258.232 64.2894 258.611 64.5811C259.019 64.8436 259.603 64.9748 260.361 64.9748C260.828 64.9748 261.309 64.9311 261.805 64.8436C262.301 64.7561 262.753 64.5956 263.161 64.3623V67.9498C262.694 68.2123 262.082 68.3873 261.324 68.4748C260.594 68.5915 260.026 68.6498 259.617 68.6498C258.101 68.6498 256.919 68.4456 256.074 68.0373C255.257 67.5998 254.644 67.0456 254.236 66.3748C253.857 65.704 253.624 64.9602 253.536 64.1436C253.478 63.2977 253.449 62.4519 253.449 61.6061V50.7998H248.899V47.3873H253.449V41.5686H257.386V47.3873H263.03V50.7998Z" fill="#FFCD45"/>
<path d="M107.639 14.3249C107.12 14.1594 106.527 14.0411 105.711 14.0411C104.351 14.0411 103.338 14.4904 103.338 16.193V17.3281H107.145V18.2031C107.145 19.3382 105.884 20.0003 104.772 20.0003H103.338V28.5134H102.003C100.939 28.5134 100 27.7331 100 26.6217V15.9329C100 14.1357 101.31 11.2506 105.192 11.2506C106.626 11.2506 107.738 12.0073 107.738 13.2607V14.3249H107.639Z" fill="#131920" fill-opacity="0.87"/>
<path d="M110.186 13.7336C110.631 13.2371 111.224 12.8588 111.743 12.8588H112.51V15.7437H117.133V17.0443C117.133 17.7064 116.515 18.5577 115.155 18.5577H112.51V23.5475C112.51 25.2027 113.276 25.8413 114.611 25.8413C115.674 25.8413 116.49 25.6994 117.009 25.3919H117.133V26.5269C117.133 27.8275 116.144 28.6553 114.216 28.6553C110.853 28.6553 109.222 26.9053 109.222 23.9257V16.264C109.222 15.0107 109.469 14.5377 110.186 13.7336Z" fill="#131920" fill-opacity="0.87"/>
<path d="M126.676 18.8416C126.182 18.6524 125.613 18.4632 124.748 18.4632C123.265 18.4632 122.449 19.2436 122.449 21.1827V28.5134H121.534C120.051 28.5134 119.111 27.8041 119.111 26.4798V20.6152C119.111 18.0611 120.52 15.6255 124.031 15.6255C126.083 15.6255 126.8 16.7369 126.8 17.7064V18.8416H126.676Z" fill="#131920" fill-opacity="0.87"/>
<path d="M135.873 22.9562H134.686C132.165 22.9562 131.448 23.5237 131.448 24.5643C131.448 25.5574 132.288 26.1486 133.747 26.1486C135.181 26.1486 135.873 25.4865 135.873 24.1859V22.9562ZM134.068 28.7264H133.401C130.236 28.7264 128.061 27.0237 128.061 24.6825C128.061 22.4123 129.791 20.6861 134.686 20.6861H135.848V20.5205C135.848 18.7234 134.958 18.1794 132.981 18.1794C130.582 18.1794 129.247 19.0544 128.753 19.6457H128.629V18.6287C128.629 17.21 129.964 15.5073 133.475 15.5073C136.442 15.5073 139.112 16.8316 139.112 21.23V24.1623C139.112 26.8582 137.035 28.7264 134.068 28.7264Z" fill="#131920" fill-opacity="0.87"/>
<path d="M151.819 19.8584C151.374 19.1253 150.113 18.5342 148.21 18.5342C146.282 18.5342 144.576 20.024 144.576 21.9158C144.576 24.2331 146.009 25.8175 148.259 25.8175C150.163 25.8175 151.3 25.2263 151.77 24.6351H151.893V26.1015C151.893 27.6384 150.336 28.75 147.938 28.75C144.279 28.75 141.115 26.0305 141.115 22.3887C141.115 18.747 143.76 15.6255 148.309 15.6255C150.435 15.6255 151.943 16.8552 151.943 18.3686V19.8584H151.819Z" fill="#131920" fill-opacity="0.87"/>
<path d="M157.803 13.5918V21.2063C159.755 18.6997 160.769 17.5883 161.882 16.5713C162.673 15.8619 163.464 15.7437 164.527 15.7437H166.431V15.8619C165.491 16.6188 162.401 19.9766 161.016 21.6556C162.079 22.9088 163.118 24.2096 164.305 25.3682C165.516 26.5269 166.06 26.7635 166.876 27.0237C166.529 28.0404 165.986 28.5843 164.626 28.5843C163.884 28.5843 163.019 28.2533 162.45 27.7094C160.745 26.0305 159.261 24.1387 157.803 22.2705V28.5134H156.665C155.182 28.5134 154.465 27.7331 154.465 26.267V11.4871H155.528C157.135 11.4871 157.803 12.3622 157.803 13.5918Z" fill="#131920" fill-opacity="0.87"/>
<path fill-rule="evenodd" clip-rule="evenodd" d="M40 80C62.0914 80 80 62.0914 80 40C80 17.9086 62.0914 0 40 0C17.9086 0 0 17.9086 0 40C0 62.0914 17.9086 80 40 80ZM40 76.875C59.5253 76.875 75.5062 61.6996 76.7916 42.5H48.3877C47.312 46.1144 43.9638 48.75 40 48.75C35.1675 48.75 31.25 44.8325 31.25 40C31.25 35.1675 35.1675 31.25 40 31.25C43.9638 31.25 47.312 33.8856 48.3877 37.5H76.7916C75.5062 18.3004 59.5253 3.125 40 3.125C20.4747 3.125 4.4938 18.3004 3.20841 37.5H20.1547C21.385 27.6342 29.801 20 40 20L43.75 20C46.25 20.0001 46.25 22.5 46.25 22.5V25H40C31.7157 25 25 31.7157 25 40C25 48.2843 31.7157 55 40 55H46.25V57.5C46.25 57.5 46.25 60 43.75 60L40 60C29.801 60 21.385 52.3658 20.1547 42.5H3.20841C4.49377 61.6996 20.4747 76.875 40 76.875ZM43.75 40C43.75 42.0711 42.0711 43.75 40 43.75C37.9289 43.75 36.25 42.0711 36.25 40C36.25 37.9289 37.9289 36.25 40 36.25C42.0711 36.25 43.75 37.9289 43.75 40Z" fill="#FFCD45"/>
</svg>
