<svg width="240" height="240" viewBox="0 0 240 240" fill="none" xmlns="http://www.w3.org/2000/svg">
<g clip-path="url(#clip0_555_5849)">
<g filter="url(#filter0_d_555_5849)">
<circle cx="120" cy="120" r="100" fill="url(#paint0_radial_555_5849)"/>
</g>
<g filter="url(#filter1_di_555_5849)">
<path fill-rule="evenodd" clip-rule="evenodd" d="M220 120C220 175.228 175.228 220 120 220C64.7715 220 20 175.228 20 120C20 64.7715 64.7715 20 120 20C175.228 20 220 64.7715 220 120ZM211.979 126.25C208.766 174.249 168.813 212.188 120 212.188C71.1867 212.188 31.2344 174.249 28.021 126.25H70.3868C73.4624 150.914 94.5024 170 120 170L129.375 170C135.625 170 135.625 163.75 135.625 163.75V157.5H120C99.2893 157.5 82.5 140.711 82.5 120C82.5 99.2893 99.2893 82.5 120 82.5H135.625V76.25C135.625 76.25 135.625 70.0001 129.375 70L120 70C94.5024 70 73.4625 89.0855 70.3868 113.75H28.021C31.2345 65.7509 71.1868 27.8125 120 27.8125C168.813 27.8125 208.766 65.7509 211.979 113.75H140.969C138.28 104.714 129.909 98.125 120 98.125C107.919 98.125 98.125 107.919 98.125 120C98.125 132.081 107.919 141.875 120 141.875C129.909 141.875 138.28 135.286 140.969 126.25H211.979ZM129.375 120C129.375 125.178 125.178 129.375 120 129.375C114.822 129.375 110.625 125.178 110.625 120C110.625 114.822 114.822 110.625 120 110.625C125.178 110.625 129.375 114.822 129.375 120Z" fill="#FFDD86"/>
</g>
</g>
<defs>
<filter id="filter0_d_555_5849" x="15" y="20" width="210" height="210" filterUnits="userSpaceOnUse" color-interpolation-filters="sRGB">
<feFlood flood-opacity="0" result="BackgroundImageFix"/>
<feColorMatrix in="SourceAlpha" type="matrix" values="0 0 0 0 0 0 0 0 0 0 0 0 0 0 0 0 0 0 127 0" result="hardAlpha"/>
<feOffset dy="5"/>
<feGaussianBlur stdDeviation="2.5"/>
<feComposite in2="hardAlpha" operator="out"/>
<feColorMatrix type="matrix" values="0 0 0 0 0 0 0 0 0 0 0 0 0 0 0 0 0 0 0.25 0"/>
<feBlend mode="normal" in2="BackgroundImageFix" result="effect1_dropShadow_555_5849"/>
<feBlend mode="normal" in="SourceGraphic" in2="effect1_dropShadow_555_5849" result="shape"/>
</filter>
<filter id="filter1_di_555_5849" x="8" y="12" width="224" height="225" filterUnits="userSpaceOnUse" color-interpolation-filters="sRGB">
<feFlood flood-opacity="0" result="BackgroundImageFix"/>
<feColorMatrix in="SourceAlpha" type="matrix" values="0 0 0 0 0 0 0 0 0 0 0 0 0 0 0 0 0 0 127 0" result="hardAlpha"/>
<feOffset dy="5"/>
<feGaussianBlur stdDeviation="6"/>
<feComposite in2="hardAlpha" operator="out"/>
<feColorMatrix type="matrix" values="0 0 0 0 0 0 0 0 0 0 0 0 0 0 0 0 0 0 0.25 0"/>
<feBlend mode="normal" in2="BackgroundImageFix" result="effect1_dropShadow_555_5849"/>
<feBlend mode="normal" in="SourceGraphic" in2="effect1_dropShadow_555_5849" result="shape"/>
<feColorMatrix in="SourceAlpha" type="matrix" values="0 0 0 0 0 0 0 0 0 0 0 0 0 0 0 0 0 0 127 0" result="hardAlpha"/>
<feOffset dy="-8"/>
<feGaussianBlur stdDeviation="5"/>
<feComposite in2="hardAlpha" operator="arithmetic" k2="-1" k3="1"/>
<feColorMatrix type="matrix" values="0 0 0 0 0.988235 0 0 0 0 0.627451 0 0 0 0 0.0901961 0 0 0 0.25 0"/>
<feBlend mode="normal" in2="shape" result="effect2_innerShadow_555_5849"/>
</filter>
<radialGradient id="paint0_radial_555_5849" cx="0" cy="0" r="1" gradientUnits="userSpaceOnUse" gradientTransform="translate(120 120) rotate(90) scale(100)">
<stop stop-color="#34393F"/>
<stop offset="0.0001" stop-color="#2D3239"/>
<stop offset="1" stop-color="#131920"/>
</radialGradient>
<clipPath id="clip0_555_5849">
<rect width="240" height="240" fill="white"/>
</clipPath>
</defs>
</svg>
