<?xml version="1.0" encoding="utf-8"?>
<!-- Generator: Adobe Illustrator 18.1.1, SVG Export Plug-In . SVG Version: 6.00 Build 0)  -->
<svg version="1.1" id="Layer_1" xmlns="http://www.w3.org/2000/svg" xmlns:xlink="http://www.w3.org/1999/xlink" x="0px" y="0px"
	 viewBox="-293 385 24 24" enable-background="new -293 385 24 24" xml:space="preserve">
<linearGradient id="SVGID_1_" gradientUnits="userSpaceOnUse" x1="-281" y1="386.25" x2="-281" y2="406.0833">
	<stop  offset="0" style="stop-color:#A3A3A3"/>
	<stop  offset="1" style="stop-color:#7C7C7C"/>
</linearGradient>
<path fill="url(#SVGID_1_)" stroke="#666666" stroke-width="0.5" stroke-miterlimit="10" d="M-274,388h-4.2c-0.4-1.2-1.5-2-2.8-2
	s-2.4,0.8-2.8,2h-4.2c-1.1,0-2,0.9-2,2v14c0,1.1,0.9,2,2,2h14c1.1,0,2-0.9,2-2v-14C-272,388.9-272.9,388-274,388z M-281,388
	c0.5,0,1,0.4,1,1s-0.5,1-1,1s-1-0.4-1-1S-281.5,388-281,388z M-283,402l-4-4l1.4-1.4l2.6,2.6l6.6-6.6l1.4,1.4L-283,402z"/>
</svg>
