<svg width="527" height="160" viewBox="0 0 527 160" fill="none" xmlns="http://www.w3.org/2000/svg">
<path d="M247.349 87.6871C245.599 85.4121 243.382 83.6621 240.699 82.4371C238.015 81.2121 235.245 80.5996 232.386 80.5996C228.886 80.5996 225.707 81.2704 222.849 82.6121C220.049 83.8954 217.628 85.6746 215.586 87.9496C213.603 90.2246 212.057 92.9079 210.949 95.9996C209.84 99.0329 209.286 102.3 209.286 105.8C209.286 109.066 209.811 112.158 210.861 115.075C211.911 117.991 213.428 120.558 215.411 122.775C217.395 124.991 219.815 126.741 222.674 128.025C225.532 129.308 228.77 129.95 232.386 129.95C235.945 129.95 239.065 129.22 241.749 127.762C244.432 126.304 246.707 124.262 248.574 121.637L255.661 126.975C255.195 127.616 254.378 128.55 253.211 129.775C252.045 130.941 250.499 132.137 248.574 133.362C246.649 134.529 244.315 135.55 241.574 136.425C238.89 137.358 235.77 137.825 232.211 137.825C227.311 137.825 222.878 136.891 218.911 135.025C215.003 133.158 211.649 130.708 208.849 127.675C206.107 124.641 204.007 121.229 202.549 117.437C201.09 113.587 200.361 109.708 200.361 105.8C200.361 101.016 201.149 96.6121 202.724 92.5871C204.299 88.5038 206.486 85.0038 209.286 82.0871C212.145 79.1121 215.557 76.8079 219.524 75.1746C223.49 73.5413 227.865 72.7246 232.649 72.7246C236.732 72.7246 240.728 73.5121 244.636 75.0871C248.603 76.6621 251.84 79.0829 254.349 82.3496L247.349 87.6871Z" fill="#FFDD86"/>
<path d="M270.195 115.512C270.195 117.612 270.516 119.566 271.158 121.375C271.799 123.125 272.703 124.641 273.87 125.925C275.037 127.15 276.466 128.141 278.158 128.9C279.849 129.6 281.745 129.95 283.845 129.95C285.945 129.95 287.841 129.6 289.533 128.9C291.224 128.141 292.653 127.15 293.82 125.925C294.987 124.641 295.891 123.125 296.533 121.375C297.174 119.566 297.495 117.612 297.495 115.512C297.495 113.412 297.174 111.487 296.533 109.737C295.891 107.929 294.987 106.412 293.82 105.187C292.653 103.904 291.224 102.912 289.533 102.212C287.841 101.454 285.945 101.075 283.845 101.075C281.745 101.075 279.849 101.454 278.158 102.212C276.466 102.912 275.037 103.904 273.87 105.187C272.703 106.412 271.799 107.929 271.158 109.737C270.516 111.487 270.195 113.412 270.195 115.512ZM261.795 115.512C261.795 112.479 262.349 109.65 263.458 107.025C264.624 104.4 266.199 102.095 268.183 100.112C270.166 98.1288 272.499 96.5829 275.183 95.4746C277.866 94.3079 280.753 93.7246 283.845 93.7246C286.937 93.7246 289.824 94.3079 292.508 95.4746C295.191 96.5829 297.524 98.1288 299.508 100.112C301.491 102.095 303.037 104.4 304.145 107.025C305.312 109.65 305.895 112.479 305.895 115.512C305.895 118.545 305.312 121.404 304.145 124.087C303.037 126.712 301.491 129.016 299.508 131C297.524 132.925 295.191 134.47 292.508 135.637C289.824 136.745 286.937 137.3 283.845 137.3C280.753 137.3 277.866 136.745 275.183 135.637C272.499 134.47 270.166 132.925 268.183 131C266.199 129.016 264.624 126.712 263.458 124.087C262.349 121.404 261.795 118.545 261.795 115.512Z" fill="#FFDD86"/>
<path d="M315.761 94.7746H323.636V101.162H323.811C324.802 98.9454 326.523 97.1663 328.973 95.8246C331.423 94.4246 334.252 93.7246 337.461 93.7246C339.444 93.7246 341.34 94.0454 343.148 94.6871C345.015 95.2704 346.619 96.2038 347.961 97.4871C349.361 98.7704 350.469 100.433 351.286 102.475C352.102 104.458 352.511 106.82 352.511 109.562V136.25H344.636V111.75C344.636 109.825 344.373 108.191 343.848 106.85C343.323 105.45 342.623 104.341 341.748 103.525C340.873 102.65 339.852 102.037 338.686 101.687C337.577 101.279 336.411 101.075 335.186 101.075C333.552 101.075 332.036 101.337 330.636 101.862C329.236 102.387 328.011 103.233 326.961 104.4C325.911 105.508 325.094 106.937 324.511 108.687C323.927 110.437 323.636 112.508 323.636 114.9V136.25H315.761V94.7746Z" fill="#FFDD86"/>
<path d="M364.381 94.7746H372.256V101.162H372.431C373.423 98.9454 375.144 97.1663 377.594 95.8246C380.044 94.4246 382.873 93.7246 386.081 93.7246C388.065 93.7246 389.96 94.0454 391.769 94.6871C393.635 95.2704 395.24 96.2038 396.581 97.4871C397.981 98.7704 399.09 100.433 399.906 102.475C400.723 104.458 401.131 106.82 401.131 109.562V136.25H393.256V111.75C393.256 109.825 392.994 108.191 392.469 106.85C391.944 105.45 391.244 104.341 390.369 103.525C389.494 102.65 388.473 102.037 387.306 101.687C386.198 101.279 385.031 101.075 383.806 101.075C382.173 101.075 380.656 101.337 379.256 101.862C377.856 102.387 376.631 103.233 375.581 104.4C374.531 105.508 373.715 106.937 373.131 108.687C372.548 110.437 372.256 112.508 372.256 114.9V136.25H364.381V94.7746Z" fill="#FFDD86"/>
<path d="M418.952 118.4C418.952 120.208 419.331 121.87 420.089 123.387C420.906 124.845 421.956 126.1 423.239 127.15C424.523 128.2 426.01 129.016 427.702 129.6C429.394 130.183 431.144 130.475 432.952 130.475C435.402 130.475 437.531 129.92 439.339 128.812C441.148 127.645 442.81 126.129 444.327 124.262L450.277 128.812C445.902 134.47 439.777 137.3 431.902 137.3C428.635 137.3 425.66 136.745 422.977 135.637C420.352 134.529 418.106 133.012 416.239 131.087C414.431 129.104 413.031 126.8 412.039 124.175C411.048 121.491 410.552 118.604 410.552 115.512C410.552 112.42 411.077 109.562 412.127 106.937C413.235 104.254 414.723 101.95 416.589 100.025C418.514 98.0413 420.789 96.4954 423.414 95.3871C426.039 94.2788 428.898 93.7246 431.989 93.7246C435.664 93.7246 438.756 94.3663 441.264 95.6496C443.831 96.9329 445.931 98.6246 447.564 100.725C449.198 102.766 450.364 105.1 451.064 107.725C451.823 110.291 452.202 112.916 452.202 115.6V118.4H418.952ZM443.802 112.1C443.744 110.35 443.452 108.745 442.927 107.287C442.46 105.829 441.731 104.575 440.739 103.525C439.748 102.416 438.494 101.57 436.977 100.987C435.519 100.345 433.798 100.025 431.814 100.025C429.889 100.025 428.11 100.404 426.477 101.162C424.902 101.862 423.56 102.795 422.452 103.962C421.344 105.129 420.469 106.441 419.827 107.9C419.244 109.3 418.952 110.7 418.952 112.1H443.802Z" fill="#FFDD86"/>
<path d="M491.285 105.8C489.827 104.283 488.281 103.145 486.647 102.387C485.072 101.57 483.177 101.162 480.96 101.162C478.802 101.162 476.906 101.57 475.272 102.387C473.697 103.145 472.356 104.225 471.247 105.625C470.197 106.966 469.381 108.541 468.798 110.35C468.273 112.1 468.01 113.937 468.01 115.862C468.01 117.787 468.331 119.625 468.972 121.375C469.614 123.066 470.518 124.554 471.685 125.837C472.852 127.12 474.252 128.141 475.885 128.9C477.518 129.6 479.356 129.95 481.397 129.95C483.614 129.95 485.51 129.57 487.085 128.812C488.66 127.995 490.118 126.829 491.46 125.312L497.06 130.912C495.018 133.187 492.627 134.82 489.885 135.812C487.202 136.804 484.343 137.3 481.31 137.3C478.102 137.3 475.156 136.775 472.472 135.725C469.847 134.675 467.572 133.216 465.647 131.35C463.722 129.425 462.235 127.15 461.185 124.525C460.135 121.841 459.61 118.895 459.61 115.687C459.61 112.479 460.135 109.533 461.185 106.85C462.235 104.166 463.693 101.862 465.56 99.9371C467.485 98.0121 469.76 96.5246 472.385 95.4746C475.068 94.3663 478.043 93.8121 481.31 93.8121C484.343 93.8121 487.231 94.3663 489.972 95.4746C492.772 96.5246 495.193 98.1579 497.235 100.375L491.285 105.8Z" fill="#FFDD86"/>
<path d="M526.059 101.6H514.772V120.412C514.772 121.579 514.801 122.745 514.859 123.912C514.918 125.02 515.122 126.041 515.472 126.975C515.88 127.85 516.464 128.579 517.222 129.162C518.039 129.687 519.205 129.95 520.722 129.95C521.655 129.95 522.618 129.862 523.609 129.687C524.601 129.512 525.505 129.191 526.322 128.725V135.9C525.389 136.425 524.164 136.775 522.647 136.95C521.189 137.183 520.051 137.3 519.234 137.3C516.201 137.3 513.839 136.891 512.147 136.075C510.514 135.2 509.289 134.091 508.472 132.75C507.714 131.408 507.247 129.92 507.072 128.287C506.955 126.595 506.897 124.904 506.897 123.212V101.6H497.797V94.7746H506.897V83.1371H514.772V94.7746H526.059V101.6Z" fill="#FFDD86"/>
<path d="M215.278 28.6497C214.24 28.3187 213.053 28.0822 211.422 28.0822C208.702 28.0822 206.675 28.9808 206.675 32.3859V34.6563H214.289V36.4062C214.289 38.6764 211.768 40.0006 209.543 40.0006H206.675V57.0269H204.005C201.879 57.0269 200 55.4662 200 53.2434V31.8658C200 28.2715 202.62 22.5012 210.383 22.5012C213.251 22.5012 215.476 24.0147 215.476 26.5213V28.6497H215.278Z" fill="white" fill-opacity="0.87"/>
<path d="M220.372 27.4673C221.262 26.4742 222.448 25.7175 223.487 25.7175H225.02V31.4874H234.266V34.0886C234.266 35.4128 233.03 37.1155 230.31 37.1155H225.02V47.0949C225.02 50.4054 226.552 51.6825 229.222 51.6825C231.349 51.6825 232.98 51.3988 234.019 50.7839H234.266V53.0539C234.266 55.6551 232.288 57.3106 228.431 57.3106C221.707 57.3106 218.444 53.8106 218.444 47.8515V32.528C218.444 30.0214 218.938 29.0754 220.372 27.4673Z" fill="white" fill-opacity="0.87"/>
<path d="M253.352 37.6832C252.363 37.3047 251.226 36.9265 249.496 36.9265C246.529 36.9265 244.897 38.4872 244.897 42.3655V57.0269H243.068C240.101 57.0269 238.222 55.6083 238.222 52.9597V41.2305C238.222 36.1223 241.04 31.2509 248.062 31.2509C252.166 31.2509 253.6 33.4738 253.6 35.4128V37.6832H253.352Z" fill="white" fill-opacity="0.87"/>
<path d="M271.746 45.9125H269.373C264.329 45.9125 262.895 47.0475 262.895 49.1286C262.895 51.1147 264.576 52.2971 267.493 52.2971C270.361 52.2971 271.746 50.973 271.746 48.3719V45.9125ZM268.137 57.4527H266.802C260.472 57.4527 256.121 54.0474 256.121 49.3649C256.121 44.8246 259.582 41.3723 269.373 41.3723H271.696V41.0409C271.696 37.4468 269.916 36.3588 265.961 36.3588C261.165 36.3588 258.495 38.1089 257.506 39.2913H257.259V37.2573C257.259 34.4199 259.929 31.0146 266.95 31.0146C272.883 31.0146 278.223 33.6632 278.223 42.46V48.3246C278.223 53.7164 274.07 57.4527 268.137 57.4527Z" fill="white" fill-opacity="0.87"/>
<path d="M303.639 39.7168C302.748 38.2507 300.227 37.0684 296.419 37.0684C292.563 37.0684 289.151 40.048 289.151 43.8317C289.151 48.4663 292.019 51.6351 296.518 51.6351C300.326 51.6351 302.6 50.4527 303.539 49.2702H303.787V52.2029C303.787 55.2768 300.672 57.5 295.876 57.5C288.558 57.5 282.229 52.061 282.229 44.7773C282.229 37.4939 287.519 31.2509 296.617 31.2509C300.87 31.2509 303.886 33.7103 303.886 36.7372V39.7168H303.639Z" fill="white" fill-opacity="0.87"/>
<path d="M315.605 27.1835V42.4126C319.511 37.3994 321.538 35.1765 323.763 33.1427C325.346 31.7239 326.928 31.4874 329.054 31.4874H332.861V31.7239C330.982 33.2375 324.802 39.9532 322.033 43.3113C324.159 45.8176 326.236 48.4193 328.609 50.7364C331.032 53.0538 332.12 53.527 333.751 54.0474C333.059 56.0808 331.971 57.1687 329.252 57.1687C327.768 57.1687 326.038 56.5066 324.901 55.4187C321.489 52.061 318.522 48.2773 315.605 44.541V57.0269H313.33C310.364 57.0269 308.93 55.4661 308.93 52.5339V22.9742H311.056C314.27 22.9742 315.605 24.7243 315.605 27.1835Z" fill="white" fill-opacity="0.87"/>
<path fill-rule="evenodd" clip-rule="evenodd" d="M80 160C124.183 160 160 124.183 160 80C160 35.8172 124.183 0 80 0C35.8172 0 0 35.8172 0 80C0 124.183 35.8172 160 80 160ZM80 153.75C119.051 153.75 151.012 123.399 153.583 85H96.7753C94.6239 92.2287 87.9275 97.5 80 97.5C70.335 97.5 62.5 89.665 62.5 80C62.5 70.335 70.335 62.5 80 62.5C87.9275 62.5 94.6239 67.7713 96.7753 75H153.583C151.012 36.6008 119.051 6.25 80 6.25C40.9494 6.25 8.98759 36.6007 6.41682 75H40.3095C42.77 55.2684 59.6019 40 80 40L87.5 40C92.5 40.0001 92.5 45 92.5 45V50H80C63.4314 50 50 63.4314 50 80C50 96.5685 63.4314 110 80 110H92.5V115C92.5 115 92.5 120 87.5 120L80 120C59.6019 120 42.7699 104.732 40.3095 85H6.41682C8.98754 123.399 40.9494 153.75 80 153.75ZM87.5 80C87.5 84.1421 84.1421 87.5 80 87.5C75.8578 87.5 72.5 84.1421 72.5 80C72.5 75.8579 75.8578 72.5 80 72.5C84.1421 72.5 87.5 75.8579 87.5 80Z" fill="#FFDD86"/>
</svg>
